<?xml version="1.0" encoding="utf-8"?>
<!-- Generator: Adobe Illustrator 19.0.0, SVG Export Plug-In . SVG Version: 6.00 Build 0)  -->
<svg version="1.1" id="Layer_1" xmlns="http://www.w3.org/2000/svg" xmlns:xlink="http://www.w3.org/1999/xlink" x="0px" y="0px"
	 viewBox="-49 141 512 512" style="enable-background:new -49 141 512 512;" xml:space="preserve">
<style type="text/css">
	.st0{enable-background:new    ;}
	.st1{fill:#E44D26;}
	.st2{fill:#EBEBEB;}
	.st3{fill:#F16529;}
	.st4{fill:#FFFFFF;}
</style>
<g id="形状_1_9_" class="st0">
	<g id="形状_1">
		<g>
			<polygon class="st1" points="20.5,194.5 54.5,575.2 206.8,617.5 359.5,575.2 393.5,194.5 			"/>
		</g>
	</g>
</g>
<g id="形状_1_8_" class="st0">
	<g id="形状_1_1_">
		<g>
			<path class="st2" d="M207,272.3H89.9l1.1,12.5l11.5,128.7H207v-46.7h-61.8l-4.3-47.8H207V272.3z M154.8,474.1l-3.3-37.2h-46.9
				l6.5,73.3l95.6,26.6l0.2-0.1v-48.6l-0.2,0.1L154.8,474.1z"/>
		</g>
	</g>
</g>
<g id="形状_1_7_" class="st0">
	<g id="形状_1_2_">
		<g>
			<polygon class="st3" points="207,225.6 207,585.1 330.4,550.9 359.5,225.6 			"/>
		</g>
	</g>
</g>
<g id="形状_1_6_" class="st0">
	<g id="形状_1_3_">
		<g>
			<path class="st4" d="M206.8,413.5h57.5l-5.4,60.6l-52.1,14.1v48.6l95.7-26.5l0.7-7.9l11-122.9l1.1-12.5H206.8L206.8,413.5
				L206.8,413.5z M206.8,272.3V319h112.8l0.9-10.5l2.1-23.7l1.1-12.5L206.8,272.3L206.8,272.3z"/>
		</g>
	</g>
</g>
</svg>
