<svg xmlns="http://www.w3.org/2000/svg" style="isolation:isolate" viewBox="309 449 1000 550" width="1000" height="550"><g fill="#7C7C7C" stroke-width="2" stroke="#FFF" stroke-linejoin="round" stroke-linecap="round"><path d="M410 858.8h-.2v-2.3l.2-.3.3.6.5.5h.4v.2l-.9.7-.3.6zm59.2-56.6l-.7.4h-.5l.2-.6 1.3-1.6.3-.1.1.5-.1.3-.2.5-.4.6zM616.8 826.7l.5 12.9-7.7-5.2.3-.5.6-1.2.9-.7.9-.6 1-.9.9-1 .6-.7.4-1.1.1-1.3-.1-1v-1.1l.2-.5.6-.3.3-.2.3.2v.7l-.2 1.1.2 1.2.2.2zm120.6-88l4.7 7.8 1 2.2-2.4 2.6-30.9 22.5-2.2.1-2.8-1.4-2.3-.3-2.3-.7.5-1.6-3.7-5.5-3.6-3.6-3-1-4.6-7.4h-7l-6 1.5-5.3 7.5-2.3 6-6.1 9.4-5.6-.4-2.4 2.4-.7 4.3-5.9 1.4-6.1 4.5-6.1 6.4-13.6 18.2-.9 3.8-.8.1-.5-.2-.2-.6-1.2-.1-.3.1-.1.3v.3l.2.6v.1l-.3.4h-.4l-1.5-.4h-.1l-.5.3-.5.2-.2.2-.5.9-.3.4-.4.1-.2-.1-.3.1-.2.2-.8 1.4-.1.4-.5 1.5-.4 1.1-.1.4v.6l-.1.4-.2.9-.1.8-.1.7v.6l-.1.6-.1.2-.6.7-.1.2-.1.6-.2.5-.2-.2-.6-.2-.6-.1-2 .6-5.9 1.7-5.6 1.7-12.2 3.7-6.9 2.2-6.9 2.3-5.1 1.6v-.2l-4-27.4-1.7-4.6-1.3-2.5-.5-2.2-.5-1.8-2-3-.6-3.7-19-7.2-5-4.7-3-4.5-2.2-5.4-2-3.1.1-5.2 1.8-12.6-.3-4.2-2.2-9.1-2.4-2.9.1-4-.9-4.4-1.1-4 .6-4.6.6-.8.1-2-1.2-4.1-2.2-.2-1.1-.9-.8-1.4-1.3-.2-1 .7-1.1 1.7-1.2 3.3-9.1-2.1.5-1.3-.3-1.8.1-3.5-.7-4.2-1.9-4.5-1.8 2.6-.9-.6-.2-1.1-2.8-1.5-1.7-1.6-.1-3.8 1.2-4.3-.1-2.3 1.2-.3 1-2.2 1.2-1.1 3-.9.7-1.3 1.3-.1 2.9.3 2.8-1.5.1-1.5 1-1.4 1.5-1.4 1.3-1.9.4-2.1 1.1-2.3.3-1.6.6-2.2-.7-1.4-1.1-.8-1.3-2.3.3-4.1-1.1-3.9 1.6-1.8.4-1.9 1.8-2.9h.1l1-.5 1.4-1.1.7-1.2-.1-1.2-.8-2.8v-.8l.3-1.5-.1-.8-.1-.2-.3-.4-.1-.3.1-.4.3-.7.2-.3-.3-1.5-1.4-.8-1.4-.4-.5-.5.3-.3.4-.3.3-.3-.5-1.5.2-.5.5-.2 2.1-.7h.5l.6.1.5.3 1 .9 1.6.8.5.5.7 1 .8.9 3.8 1 .3.9v1.5l.5 1 5.5 5.1.5.4.5.1h.4l1.3-.3h.6l.6.1.6.5.4.6.1.6.3.5 1.1.5.4.4.8 1.1 1 .7.9-.3 1.7-1.9 4.1-2.3 3.6-3 .5-.9.9-4.7.2-.9.3-.5.4-.1 2 .9.8.2.6-.1.5-.5.2-.6.2-1.4.3-.4 1.3-.2.4-.5v-.5l-.3-1.2v-.5l.3-.5.3-.4.8-.7.7.3 2.2 3.2.5.2 1.7.4.5-.1.1-.4-.2-.7-.5-1.2v-.8l.3-.5.5-.4.5-.2.6-.1.4.2.9.7.6.3.7-.1.6-.1.6-.3.6-.2 2.1.2 1.1-.3 1.6-1 .4-.1.4.2.3.8.2 1.5.2.7.4.3h.6l.4.1.4.4.4.6.2.6.3 1.4.3.6.3.6.5.5 1.6.9.6.2.6-.1.6-.3.4-.5.3-.6.3-.6.5-.3 1 .1 2.3.8.8-.5.4-1.1v-1.3l-.2-2.6.1-1.4.5-.9.3-.9.7-.1 1.1.6.4.1h1.4l.3.2.2.2.4.6h.2l.7-.3.3-.1 1.9-.4.2.1.1.2v.6l.6.4.6.4h.7l.6-.4.2-.7.3-.8.3-.7.5-.3.5-.2 1-.6.4.3.7.8.3.5.1.6.1.5.1.4.5.3h3l1.1.5.7 1 .2 1.7-.1.7-.3.6-.4.4-.4.5-.1.5v.7l.3.7.3.4.4.1h1.3l.2.3-.2 1.5.1.6.4.4.7.1.7-.2.7-.1.5.5.4 1.3.2.4.4.5 1.9 1.4.9.4 6.7.6.5.2.4.5.3.6.3.3.3.2h.4l2.4-.5 1.2-.1 1 .7.5.5 1.3.6.3.2-.1 1-.6.3-1.4-.2-.6.5-.1.6.4.6 1.4 1.2.8-.3.8-.9.8-.7 1.3-.2 1.3.1 1.2-.2 1-1.1 1-2.3.3-.6.8-.9.3-.5.1-.7-.1-1.3v-.8l.1-.7 1-2.5.2-.3.2-.3 1.1-.4 1.5-.1 1.3.5.4 1.4v1.4l.6 1.1.8.9.9.7 1.3.7 10.2 1.2 2.5-.4 6.7-2.3 6.8-2.3.8-.8.5-1.2.4-1.6.4-3.5.2-1.1 1.1-6.5.6-1.8.8-1.1 1-.6 1.3-.3-.4-.2h.6l3.5-.2 1.4-1.1 1.3 2.2.3 2.1.5 2.2 1.8 2.5 3-1.7 3.4 2.7-.8 1.1-.5 2.6 3.3 3.6-1.7 3.8.2 2.2.9.9 2.3-.1 2.2 9.1 3.9 8.3 4.8 7.6.5 4.8-2.2.9-2.6-1.3-2.5 2-1.3 3.9-2.4 2.5-1.2 3.2 1 3-3.2-.1-1 1.3.3 1.7 4.7 8.1-2.5.3-2.6 1.3 2.4.7 1.8 4.3 5.3 6.5 3.7 1 2.2-1.2 3 .7.6 2.8-.6 3.6 15.4 8.2 7.6 11.7z" vector-effect="non-scaling-stroke"/><path d="M789.4 484v.1l3.2 14.2-2.9 1.3 1.5 2.1 2.9 1.3 2 3.5-6 2.7-2.6 1.8.5 3.6 1.3 4 1.6.3 1.7 2.4-.5 4.3-2.2 2.5 1 3.5 3.1.6.8 4.8.1 4.4 1.4 2.6 2.3 2.2-2.3 1.6-5.3.8-1.4 2.8.3 1.5.8 1 .7 1.9v1.9l-.3 3.1-1.9 2.1-.8 6.3-.1 6.7-.4 9-2 2.3-1.3 3.7-1 5.3-3.8 4.1-4.7 1.6-1.7-.2-.4 2.4 4 2.7 1.3 2.7-.5 4.2-.5 1.5-.3 1.5.7.8-.6.8-1.1 1-1.2 1.7 1 1.4-.2 2.4 4.2 7.5.4 6.9 3.1-.2 2.2-3.3 2.9-.5 2.4 1.7.5 2.4.9.8 2.4-.1 1.7 2.5 2.3 1.8 8.8 2.9 7.1-1.2 2.6 2.2v3l-1.1 2 1.1 1.8 2.5 2 3.1-1.8 3.3-1.3 6.4-.9 4-1.2 1.8-1.4.8.5 1 1.3 2.5 1.8-1.5 3-2.5 2.6-7.2 2.2-1.4.7v1.3l.3.8-.3.5-.2.4.5 1.1-.2 2-5.8 7.4-15.9 14.8-2.2 3-2.8 1.1-1.2 3.7-2.8.9-8.4 7.7-4.9.7-3.2 1.8-2.3 2.8-5.2 1.1-11-1.7-8.1 1.4-2.8 6.8-2.9.1.1 1-.2 2 1.1 2.6-2.9.9-5.2 2.8-.2 3.8-5.8 5.4-7.6-11.7-15.4-8.2.6-3.6-.6-2.8-3-.7-2.2 1.2-3.7-1-5.3-6.5-1.8-4.3-2.4-.7 2.6-1.3 2.5-.3-4.7-8.1-.3-1.7 1-1.3 3.2.1-1-3 1.2-3.2 2.4-2.5 1.3-3.9 2.5-2 2.6 1.3 2.2-.9-.5-4.8-4.8-7.6-3.9-8.3-2.2-9.1-2.3.1-.9-.9-.2-2.2 1.7-3.8-3.3-3.6.5-2.6.8-1.1-3.4-2.7-3 1.7-1.8-2.5-.5-2.2-.3-2.1-1.3-2.2-1.4 1.1-3.5.2h-.6l-1.3-.6-.7-.7-.6-1-1-3.1-.6-1-.9-.2-1.1-.7-.9-.4-.3.1-.6.2h-.3l-.4-.1-.8-.5-.6-.1-1.7.1-.5-.1-1-.3-.5-.1-.8.1-.3-.1-.3-.2-.5-.6-.8-.6-.3-.3-.4-.8-.1-.5-.1-.4v-1.2l.1-.5-.4-.1-9.9-.2-.3-.1-.1-.3-.1-.7-.3-.2-2.6-.5-.6-.3.1-.8.3-.5 1.2-.6.5-.4v-1l.2-.2.4-.4.3-.3.1-.3-.7-.8-4.3-1.1-2.5-1.9-.9-.3-.2.4-.3.6-.6.3-.7-.1-.6-.5-1.1-2.6-.2-.6.1-.7.3-.9h4.9l3.6-3.9 1.9-1.6 1.9-.8h1.4l1.4.3 1.3-.1 1.2-1 1-1.6.5-.4 2.3-1 .5-.4 1.2-1.4.5-.4 1-.6.8-.8-1.9-2.7-.2-.7-.1-1.6-.2-.7-.2-.4-.3-.2-2.2-.8-.4-.4-.1-.6.1-1.9-.1-.8-.1-.7-.1-.2-.3-.1-1.2.2-.4-.1-.3-.2-.3-.8-.4-.2-.2-.3-.1-.3v-.9l.6-1.6 1-.7 1.2-.3 1-.5.4-.5.5-1.2.5-.5 4.2-3.9-2-2h1.9l.9-.3.8-.6.8-.7.9-.1.8.3.8.5.7.3.8.1.7-.1.7-.3 1.2-1 .6-.1.7.3.9.8 1.4 1.5.8.3.8-.5.4-.4.5-.1 1 .1 2.5-.3.9.3 1.6 1.3.9.2 1.9-.8.9-.6.5-1 .5-2 .1-.9-.2-1-.6-1-.8-.5-5.3-1-1.7-.8-1.5-1.4-1-1.4-.5-.2-2.3 1.3-.8.1-.9-.2-2.4-1.9-.9-.4h-2.3l-1.1-.2-1-1-.5-.9-.2-1.1.1-1 .4-1 1.1-1.6.2-.5.1-.5.1-1.3.4-.4.7-.2.6.2.5.4.5.9.6.9.7.5h.8l.6-.4 1.2-1.4.7-.5 1-.5-.7-2.8-.3-.5-.3-.2-2.8.1-.7.2-1.1 1.5-.8.2-3.5-.9-.4-.3-.2-.2-.3-.7-.1-.3-1.3-.4-3.4-.2-.6-.8.6-1 2.5.9.8-.8.1-.5v-1l.2-.5.4-.2.9-.2.2-.4.3-1 .6-.7.7-.7.5-.7v-.9l-.6-.5-.8-.4-.7-.4-.5-.8-.2-.2-.5-.1-1.6-.1-.5-.1-.2-.4v-1l.2-.4.4-.6.5-.4 1.2-.2.8-.1 1.1.3.2.2.3.7.3.5.4.4h.5l.4-.8v-.7l-.1-.7-.6-1.6-.2-.8 1.4-.1.6-.4.5-.7.4-.6.7-.1 1.9.3.4.3.7 1.6.4.3 1.8.4.1 1.3.2.4.4.2.5-.1.2-.4.2-.6v-.8h2.4l.3.3.3.2.3-.1.6-.7h.3l.4.1.3.2.2.8.1.6.1.4.5.3.9.3 2.7.1V510l10-.4.5.1.3.4v.9l-1.1.8-.3.5.1.9.4.7 1.2.6.5.6.2.4.3.3.3.2h.4l.4-.2.1-.2-.3-1.3-.1-.4v-.3l.3-.5 1.1-1.1-.5-.8-.1-.2-.3-1.4.7-1.1 1.2-.7 1-.3 2.1-.2 1.4-.5.4.1 1.1.5.7.1 2-.6 2.4.3.7-.4.4-.7-.1-.6-.2-.6-.1-.8.3-.6.8-.3 1.5.1 2.8.6h.9l.7-.3 1.3-1.1.6-.3 1.7-.1 4-1.8h.8l.8.4 2 1.6.7.2.3.1.3-.5.7-.4.9-.1.8-.4.4-1.1-.8-1.1-.3-.7v-.3l.2-.1.2-.3.2-.2.5.5.3.1.3.1.3-.1.2-.1.4-.5.2-.2h.3l1.1.3.6-.2 1.2-.6.8-.1.5-.3.4-.3h.3l.7.3 2.4-.3.3-.1.5-.7h.3l.5.2.3.1.6-.2 1-.7.4.3 1.5 1.3.7.5.9.1 1.6-.8 1.5-1.3 1.6-.8 1.6.7 1.9 2.6.4.4.3.2.4.2.4-.1.2-.1.3-.3h.1l.8.3h.2l.7-1.4-.7-4.5.5-.9-.1-.9v-1l.4-.5 3.1-1.4h.7l1.4.4.5-.2.2-.9-.3-1.5.1-.6.7-.2 2.4.3 3.4 1.2.7-.1.7-.7.6-1.3.7-1.1.8-.5 1.8-.7.5.3.2 2.8.4.7 3-1.1zM617.3 839.6l-.5-12.9.2.3.4-.2.3-.7.1-.9.1-1 .5-1.7h.3l.3.7.5.5.7.1.3 1.1.3.8.6.5.3 1 .7.2.4.3.6.4.4.2v.4l-.2.8.3 1 .2.6.4-.2.3-.1.5-.3.3.5.2.8v1l-.4 1.3v1.5l.3 1.2.2 1.3.5 1.2.3.9.3.4.1 1.3-.3.7-.1.5v.8l.3 1.2-.2.9-3.7-2.5-5.8-3.9zm29.7-23.9l.1.1.8.2.2.1-.1.4-.4.5-.1.2.1.2.2-.1.3-.2.4-.3.3-.1h.7l1 .3.3.2.3.2.1.4v.6l-.3.4h-.4l-.6-.5-.5.1-.5.1h-.6l-.6-.3-.4-.3-1-.5-.7-.4h-.2l-1.7-.1-.1.1-.3.2-.2.5-.1.5-.8-.7-.3-.4-.2-.6.2-.6.3-.2.3-.1 1.9.1.5-.1.2-.1.7-.7h.3l.3.2.4.5.2.2zm4-.2v.4l-.1.2-.3.1-.2-.1-.5-.5-.2-.1-.8.1h-.2l-.1-.2v-.3l.3-.3.9-.2h.3l.3.1.3.2.1.2.2.4zm58.8-41.7l-4.2 3.3-.4 1.6 7.3-1.2 6.3 4.3 3.4.5 6.1 2.9 3.3.3 1.3-.4.8.7 29.2 11.8 2.1.3 5.9 5.3 5.2 2.5 34.8 8.3 4.1-.3 2.5.2.6 3.5.4 3.4 2.6 2.1 1 3.6-1.9 3.2-1.6 8.2-.1 4.1 2.3 2 3.2 2 1.9 2.3.3 26.2 2.4 1.8 1-.2 1.5.6 1.4 1.1.3 1 2.3 2.9 5.7 4.3v2.2h-2.2l-1.7 2 .7 1.3.2 2.3-1 2.7-2.5-1.5-.1 3.5-1.8 3.1-.6 3-2.1 2 .4 3.3.7-2.8.9-.4-.1 1.2 1 .1.2 2.4 1.7 1.4.6.4-1.1 1.2-12 5.9-11.8 7.9-5.2 4.6-2.2-.8-3.7 1.8-7.6 7.5-4.2-.7v-1l.2-.4.5-.2.3-.6.1-1.8 1-16.5-7 3.8h-.4l-4.8-9.8-2-4.3-1-.8-5-3.2-2.5-2.6-5.2-6.9-.8-.7-.8-.1-.9.3-7.2 4-2.4 1.4-.9.2-4.7-.4-13.9-1.3-3.7-.3-7.4-.7-2.3.4-15.6 2.5-11 2.1-1-.5-1.8-2.1-4.2-4.7-5.6-6.5-3.1-3.6-5.4-5.9-1.5-2.4-.2-.8-.2-1.7-.1-.8-.5-1-.6-.7-6.6-4.4-7.6-5.1-9.7-6.4V849.4l-.1-1.8v-1.9l.2-1.5.3-2 .2-1.7v-2.3l-.3-1.5-.2-1.7-.3-2.4-.4-1.2-.3-.5-.5-.3-.8-.2-.7-.1-.5.1-1 .4-2.4.1-.5-.2-.4-.3-.3-.3v-.8l.1-1V827l.2-.4.2-.2.2-.2.3-.4.2-.4.1-.4-.1-.5v-.4l.1-.3.3-.2.6-.1v-.8l-.1-.3-.3-.2.1-.3.3-.1.3-.3-.1-.3.1-.3.3-.1.3.3.3-.1-.1-.5-.2-.4-.9-.5.3-.3.2-.4.4-.2.3.1.2.3.8-.2.2-.2h.5l.5.1.6.1.5.3.4.3 1 .3h.5l.8-.3h.4l.2.3.8-.1.8.2.2.1.7-.1h.2l.2.2.5.7.2.2h.5l.5-.3h.6l.3.2.8.5.2.1.2.1.5-.2.4-.3.3-.5.6-1.8.9-1.3 1.1-.8 2.4-1 .5-.3.4-.4.2-.2 1-2.2.2-.3 1-.9.3-.1h.6l1.6-.4h.5l.8-.7 2.2-1.3 1.1-.9.3-.2h.4l.9.3h.4l.3-.1.3-.2.3-.3.2-.4.1-.6.2-.4.3-.4.2-.4.2-.8.2-.4.1-.3.1-.5.3-.5V801.9l-.1-.7-.1-.5-.2-.8-.2-.3-.2-.1-.7-.2h-.4l-.3.1-1 .5h-.4l-.4-.1-1.1-.6-2.6-.3h-1.1l-.8-.3-.7-.4-.3-.3-1-1.6-.7-.8-.1-.2-.2-.3v-.6l.2-.7.2-1.2.4-1.2.1-.6V789.4l-.2-.3-.2-.1-1.1-.3h-.2l-.4.3-.1-.1-.6-.5-.7-.2h-.7l-.9-.4h-.3l-.7.1.3 1 .2.4.2.3.4.3 1.3.6 2.7 1.8.1.2v.3l-.3.2-.9.5-.2.2-.7.9-.4.3-.3.2-1.9.6h-.4l-.4-.1-.3-.2-1.5-1.6-.1.4-.3.9-.1.4-.7 1.8-.3 1.1-.5-2.7-1.1-3.4-.2-.5-.3-.4-.3-.4-.4-.1-.3-.1-.3-.1-.7.2-.6.4-.3.2-.7.8-.9.6-1.2 1.1-.4.2-.9.2-.7.7-.2.5-.2.5-.1 1.2-.1 1.3.1.6.1.6.3.4 1.3.8.5.9.6.7.6.1 5.3-1.8h.5l.4.2 1.2 1.8 1 .9 1.1.6 1.2.4 1.1-1.5.2-.1 1.1-.3.2-.1.2-.3.3-.7.1-.4.9.4.2.3V803l.1.8.2.3.2.4.3.8.6.9.4.4.1.4v2.4l-.2.5-.2.4-.3.4-2.3 2.3-.3.3-.4.2-.5.1h-.4l-1.7-.5h-2.6l-.4-.1-1.4-.6-.5-.1-4.2.2-.5-.2-1.3-1-.5-.2-.6-.1-.6.1-.6.2-2.3 1.6-1 .4-1.9.3h-.5l-.4-.1-.3-.3.2-.4.6-.5.4-.4.2-.5v-1.2l-.4-1.8v-2.1l-.3-.6-.3-.6-.6-.6-.3-.2-.2-.1-1.4-.1-1.9.3h-.2l-.2-.1-.6-.6-.1-.1h-.5l-.3.2-.2.3.1.6.5.7.7 1.4.7 1.2 1.1 1.3.8 1.1.6.9.4.9.3.5.1.6-.2 1.1-.5 1.3-.7 2.1-.4 1.2-.3.9-.4.9-.1.8v.6l.3.7v.6l-.4.4h-.6l-.6-.1-.7-.2-.5.3-.5.7-.7.8-.4.6-.4.6-.4.2.1-1.5-.3-.5-.5-.4-.4-.1-.5.2-.3.5-.2.6v.4l.2.6.1.5-.1.2-.3-.1-.3-.3-.4-.5-.6-.4-.4-.5-.3-.5-.2-.1h-.2l-.2-.1-.2-.5v-.7l.6-2.6.9-1.9.4-.5.8-.5.2-.2.3-.6-.1-.5-.3-.6-.3-.4-.4-.4h-.4l-.5.1-.4.3-1.7 1.5-.5.1-1-.1-1.1.1.9-3.8 13.6-18.2 6.1-6.4 6.1-4.5 5.9-1.4.7-4.3 2.4-2.4 5.6.4 6.1-9.4 2.3-6 5.3-7.5 6-1.5h7l4.6 7.4 3 1 3.6 3.6 3.7 5.5-.5 1.6 2.3.7 2.3.3 2.8 1.4 2.2-.1zM391.7 808.3l-.4.2-.6-.5-.4-.8-1.1-3.2v-.7h.7l1 .7.5.4.3.5.4.9v.9l-.4 1.6zm162.5 4.7l-2.7-1.3h-1.2l-1.9-.7-2.5.2-1.4-1-.9-1.6-2.4.3-2.7-1.3-.1-3.4-2-2-1.7 1.1-4.9-4.4-5.6 4.8-8.4.4-19.1 4-.8.7-1.4-.1-2 .6-3.9 5.3-2.3 2.3 1.5 1.8-5.4 3.4-12.1 3-4.3-1 .3-.4.2-.2.7-.2.2-.2.8-1.2.3-.6.5-1.4.4-.7.7-.7.2-.3.1-.3.2-.8.2-.4.5-.9.1-.6-.1-.6-.1-.4.1-.4.6-.8.2-.5.1-.6.2-2.4.8-3.2v-2.4l-.7-1.9-1.1-1.4-1.3-1.3.5.1.8.6.4.3v-.3l-.4-.3-.2-.6v-.6l.1-.7-.4.2-.6.6-.5.4-.5-.2-.1-.7.4-1 .7-1.5v.7l.4.3.4.1.4-.3.2-.6.1-1.3.2-.6.2.7.2-.1.2-.6.2-.5h.2l.6.1.2-.1.4-.2.1-.5.1-1.4-.5-.8-.7-.4-.8-.1-.5-.2-.1-.5v-1.1l-.4-2.5-.5-1-.1-.4-.2-.2-1.1.1h-.4l-.4-.5-.9-1.5-.4-.3-1.1.1-2.3.4-1.3-.2h-2.8l-.6-.2-.4-.2-.9-1-.4-.2-1.6-.2h-.4l-.3.4-.1.4v.9l-.1.3-1.1 1.5-.4.3-2.3.9h-.7l-.8-.6-.3.1-.2.3.1.5.1.1.7.2.2.1.3.6.1.4.1.4-.2.1-3.1-.2-.6-.3-.4-.3v-.3l-.1-.5-.1.1-.3-.3-.8-.8-.2-.2-.2-.2-.1-.4.2-.2.2-.3.2-.3v-.4l-.5-.2-.5.7-.5 1.3-.4.2h-.8l-.8-.2-.6-.3.8-1.1.2-.2-.5-.2-.6.3-1 .7h-.6l-.5-.3-.5-.4-.4-.5-.9-.7-.3-.6.5-1.5-.1-.8-.3-.5-.6-.1-.5.4-.2.7-.2.7-.2.7-.5.1-.5-.7-.6-1.2-.5-.5-.6-.3-1.5-.3-1.4-.5-3.1-.7-1-.6-.7.1-1.1.8-.9.5-3.3.8-.4.2-.7 1-.5.2-.3-.1-.6-.5-.2-.1-.3.1-.1.3-.1.2.1.1-.1.4-2 3.3-.4.4-.2-.6.1-.5.4-.7.1-.4-.1-.3-.3.2-.9 1-.6.3-.7.2-.5-.2-.3-.1-.2.7v1.7l-.2.6-.4.5-.4.3-.4-.2.4-.6.3-.5v-.4l-.6-.2-.8.3-.2.1-.3.3-.2-.1-.2-.2-.8-.7-.2-.1-.4-.1-.3.5-.8 2.3-.4.4.1-.4.1-1.3-.4.3-.1.4-.2.5-.2.3-.1.1h-.5l-.2.1-.3.3-1 2-.5.6-.5-.1v-.3l.2-.5.1-.3-.3-.2-.3.1-.8.5-2.1 2.3-.7 1.2-.4.5-.5.3-.9-.1-.4.1-.2.2-.4.5-.2.3-.9.3-.3.6h-.3l-.7-.2-.3.3-.1.7-.1.4-.7-.2-.3-.5-.2-.2-.2.1v.8l-.1.3-.2-.1-.5-.7-.4-.2h-.2l-.1.3.1.9v.3l-1.6-2.1-.4-.2-.1.7.2 1.6-.5-.3-.2.2-.2.4-.3.4-.2-.8-.3-.5-1.4-.6-.5-.3-.2-.5v1l.4.4.2.9.2.4h-.3l-.8-.4v-.3l.1-.3v-.2l-.1-.2-.5-.4-.2-.2-.2.2v.3l-.8-.1-.9-.3-.7-.6-.4-.7.1.9 1.6 1.9.4 1.1-.5-.2h-1l-.3-.4-.2-.6-.3-.4-.5-.1v.3l.4.4.1.7.1.7.6.4 1 .9.1.4v.7l-.1.4-1.1-.8-.4-.4-.4-.5-.3-.6-.3-.4-.4-.2h-.7l.5.4.2.4v.5l.1.3.9 1-.3.3-.4-.3-1.9-.6h-.3l-.1.2.1.3.1.3.3.1h.3l.4.3.1.7.1.6v.6l-4.7-2.8-1.8-1.4-1-1-.5-.3h-.7l-.6.1h-.6l-1.5-1.2-.6-.8-.7-.5-1-.3h-2.2l-.9-.4.6-.8-.4-.3-.1-.5-.1-.5-.2-.4-.9-.5-.5-.2-.4-.1.6-.8.6-1.7 1.3-1.1 1.5-.3 1.4.5.5.4.4.6.6 1.4.6.2 3.8-.7.7-.6 1.4-1.7-7.5-11.9-3.7-9.7-.3-.8-.2-.6-.4-.3-.9-.1-.9-.3-.6-.6-1.2-1.7-4.6-8-1.5-1.3-1.7-.8-9.6.2-5.2-2.5-.6-.1-.4.3-.2.6v2.2l-.1 1.7-.2.7-.4.1-4.5-3.2-.8-.8-.5-.6-.1-.4.2-.4.3-.7.5-.5v-.3l-.1-.2-.8-1.4-1.7-2.1-.2-.5.3-.3 2-1.2 1-.9.3-.7-.4-.5-1.4-.1-.3-.5v-.6l.1-.7.2-.6-.2-.7-.2-.3-.5-.5-.1-.4.1-.2.4-.4.4-.7 43.8 6.6 12.8 4.5.7-2.8 11-1 20-13.9 1.8-.5 1.2-1.1 1.2-.6 1.2-.1 2.4-3.2 2.7-2.2 2.5-.3 2.7-1 9.4 1.2 1.8.6.3 1.2-.7 2.9 3.8 1.5 2 .4 2.2.1.9-1.2 8.5 2.8 1.6-.7V727l.8-4.4 3.6-5.7-.2-4.4 3.7-4.6 1.4.4h8.7l2.6-.8.8-.5-.3-1.1.7-.9 4.7-4.6 1.7 1.6 2.8 1.5.2 1.1.9.6 1.8-2.6 1.9 4.5.7 4.2-.1 3.5.3 1.8-.5 1.3 9.1 2.1 1.2-3.3 1.1-1.7 1-.7 1.3.2.8 1.4 1.1.9 2.2.2 1.2 4.1-.1 2-.6.8-.6 4.6 1.1 4 .9 4.4-.1 4 2.4 2.9 2.2 9.1.3 4.2-1.8 12.6-.1 5.2 2 3.1 2.2 5.4 3 4.5 5 4.7 19 7.2.6 3.7 2 3 .5 1.8.5 2.2 1.3 2.5z" vector-effect="non-scaling-stroke"/><path d="M507.1 649.4l-1.8 2.9-.4 1.9-1.6 1.8 1.1 3.9-.3 4.1 1.3 2.3 1.1.8.7 1.4-.6 2.2-.3 1.6-1.1 2.3-.4 2.1-1.3 1.9-1.5 1.4-1 1.4-.1 1.5-2.8 1.5-2.9-.3-1.3.1-.7 1.3-3 .9-1.2 1.1-1 2.2-1.2.3.1 2.3-1.2 4.3.1 3.8-4.7 4.6-.7.9.3 1.1-.8.5-2.6.8h-8.7l-1.4-.4-3.7 4.6.2 4.4-3.6 5.7-.8 4.4v1.6l-1.6.7-8.5-2.8-.9 1.2-2.2-.1-2-.4-3.8-1.5.7-2.9-.3-1.2-1.8-.6-9.4-1.2-2.7 1-2.5.3-2.7 2.2-2.4 3.2-1.2.1-1.2.6-1.2 1.1-1.8.5-20 13.9-11 1-.7 2.8-12.8-4.5-43.8-6.6v-.4l-.4-.5-.5-.4-2.4-.6-12.2-4.3v-.1l3.4-9.5 3.3-9.1.6-.8.9-.6 1.8-1 .5-.5.5-.4 1.2-1.6 1-1.9.5-2-.3-1.9-1.2-1.6-3.6-2.8-1.4-.5 1.6-9.2 1.5-9.2.5-1.5.9-.9 5.4-2.4 1.6-1.7 1.6-2 .5-1.1-.1-1.4-1.3-1.8-.2-1.1.3-.5.9-.9.2-.6-.1-.6-.4-.4-.2-.4.3-.8.4-.3 1.7-.7.3-.5.8-1.8.8-1.1 1-1 1.1-.6h1.1l.6.4 1.6 2.1 1.1.7.3.3.3.5.2.4.2.3.5.2.3.2 1.1 1.3.5.7.9.9 1 1.5 1 .9.2.4.1.5.2.6.3.4 1.2 1 .5 1 .2 1.1.2 1.1.3 1.1.2.3.2.8.2.3.3.3 1 .8.4.9.2.9.3.5.9.1.7-.1.2.1 1.1 1.1 1.5.8.3.1.3-.2.5-.8.4-.3 5-1.9 2.4-1.5 1.9-2.2.4-.7.2-.4v-.4l-.3-1.5-.2-.6-.3-.4-1.7-.6-.1-.9.2-1.4-.4-1.5-1-2-.7-2.7-.7-5.5.1-2.7-.1-1.2-.6-.8-1.2-.3-.6-.3-.2-.8.4-.5.6.1 3.2 1.9 1.2.3 1-.2 4.5-3.4 2.2-2.9 1-.9 3.4-.8 2.1-.9 1-.9.3-1.3-.4-1.2-.8-1-.6-1 .3-1.1.6-1 .2-.6.2-1.3.2-.7.3-.6.4-.4.5-.2 2 .6h5.8l.4-.3 1.2-1.6 3.5-3.1 1-.5 4.4-.9 2.9-1.5.4-.3.2-.4-.1-.5-.2-.7v-.8l.2-.3.4-.3.3-.3-.3-.4-.1-.3.2-.2.3-.1 1.5-.1.4-.1.3-.4.2-.7.6-.1.4-.1.2-.4.1-.9-.2-2.3.1-.6.4-.4.5-.1.3-.3v-1l.1-.9h.5l.9.8h1.2l.2.2-.5.6-.4.7.3.4h1.2l1.1-.5.6-.7.1-1.1-1.1-3.3-.1-1.3.6-.7 1.3.3.4.3.5.4.4.5.2.6.4.8.6.3 6 .4.5-.2.6-.3.5-.2.4.3.6 1.1.3.3.5.2 1.1.1.4.2.3.8v.9l-.2.6-.4.4-.5.3-2.3.4-.2.3.3.6.4.6.2.5.8.8 1.8.2 2-.3 1.3-.7.5-.6.3-.6.3-.4h.6l.7.2.2.4.1.6v.9l.6 1.1 1.1-.1 1.2-.7 1-.8v-1.4l-.4-1.3-.1-1.2 1.4-1.6.7-1.1.5-.5.7-.2h.7l.6.3.7.4.6.2.8.1h.7l.6-.2.5-.5.6-1.2.3-.6.6-.3 1.4.1.7-.1.5-.4.3-1.2.4-.4.7.4.4 1.4.3 1.5.3 1.2 1.7 3.2.6 2.5.2.4.3.5.4.6.4.4.5.3.2.1.5-.4 2.2.2.1.3.3-.2.3-.3.2-.4.2-.2.3-.1.6-.1.2-.1.1-.3.2-.3.3-.1.3.1.5.6.2.1 1.4-.1.5.2-.3.7.5.1.6.4.4.1.3-.1.4-.3.3-.4.3-.3.9-.4 3 .1-.2-.7.1-.3H474l.2.4.1.2.3.1.4-.2 1.8.3.4-.1.6-.3.5.4h.1l.9.3.3.4.5.9.3.4 2.5 1 1 .8.3.3.2.6-.2.4-.8.4.4.5v.7l-.1.7.1.6.9.8.3.5.2.7.6.7 4.5 1.4 1.2-.3.7.2.9.8.5.5.6 1.3.5.4 1.3.2.5.3.2.6.2 1.5.2.5.2.4.1.4-.1.6.8 1 .4.4 1 .6.3.4.3.6.4.5.6.3 2 .4.2.2.5.4.2.2 1.1.3.4.1.1.4.1.3-.1.4-.1.4-1.4 1.8-.2.8-.1 1.7-.1.8-.5 1.7-.2.8.1.7.4.8.9 1.2.5.5.6.4.5.1 1.1-.3zM981.7 569.3l.7.8.7 3.2.6 22.4-1.2 1.3-2.5 1.8-1.6 4.2v3.9l3-.6 1.7.1.6 1.4 2.8 1 2.6 1.5-2 1.3-2.2.4-3.7 1.5-2.4 1.8-.6 1.9-1.1 2.1-1.6 2-4.6-.7-4.5.8-1.3-.2-.5 1.3.4 1 1.3 2.1.6 1.5-.1.8 1.4-.6 1.3-1.5 2.3.8 1.1.9-1.3 1.6-2.4 1.9-4.3 1.4-1.4.8.4 1.3-2.2 1.3-1.3.5-.7 1-4.1-1-1.9 2.4-.1 1.2-1.1 1.7-2 .6h-1l-1 .7-1.7.9-.2.9.2.5-.7.8.1 1.5.9.6-1.3 1.3-3-1.2-.9 1.2-1.2.4-.4 4-6.5-.6-2.6.6-1.1.7-.1-1.5.8-1.1.4-1.8.4-2.6-.7-.5 1.2-2.2-2.7-2.6h-1.1l-.7-1-1.3.2-.7-.8-.9-.1-.3.9-2.7 1.3-2.3 4.1-1.4.6-1 .9-2.7.6-.7.7.2 1.2-1 .9-2.5 1.4-1.4.2-1 .6-1 3.8-.4 3.7-.8-.9-1.2-1.1-3.3 1.3-1.5 6.2-7.9 3.3-1-3 1.9-3.2-1.4-1.3-.6-1.5-1.6-.1-6.1 1.7-2.4.3-2-.6.3-2.1-.9-.4-1.7-2.4-1.6.4-.4-1.3-1.8.4-1.2 2.5-1.4 2.3h-1.3l-.7-.6.4 2.2-1.4 1-2.8.8-8.2-2.7 1.4-3.6 1.2-4.5.4-3.3.6-1.7.5-2.4.2-4.2-5.3-2.1-2.7.9-2.5 1.4-4.5 3-8.6.1 1 1.5.6 2.7-1.8 1.4-4 1.2-6.4.9-3.3 1.3-3.1 1.8-2.5-2-1.1-1.8 1.1-2v-3l-2.6-2.2-7.1 1.2-8.8-2.9-2.3-1.8-1.7-2.5-2.4.1-.9-.8-.5-2.4-2.4-1.7-2.9.5-2.2 3.3-3.1.2-.4-6.9-4.2-7.5.2-2.4-1-1.4 1.2-1.7 1.1-1 .6-.8-.7-.8.3-1.5.5-1.5.5-4.2-1.3-2.7-4-2.7.4-2.4 1.7.2 4.7-1.6 3.8-4.1 1-5.3 1.3-3.7 2-2.3.4-9 4.4 1.4 1.9 2.9 2.4-.8 5.6-.2 1.3 2.8 2.9.1 8.2 1.6 2.5-.6 5-.5.3-5.9 2.6-.5 3.1.9 5.7 3.6 2.3.8.5-1.2v-1.1l1.8-.5 2.5-2.9-1.8-2.4-.1-1.9 1.6-.1 4.9-2.6 1.2.1.7-1.4.9-.7.2-1.1 1-1.6 2.1-1.1 1.7-1.6 3-1.4-.2-.4-.7-6.2 1.8-1.7.8-4.4-1.4-2.4-1.1-3-2.5-1.1-1.7-2-1.6-3.3 1.7-1.1.6-.8.8-1 1.6-.6-.6-.5-.4-1.5 2.6-.5 1.4-.4-.4-.7-.5-2.1h1.1l.7-.5 1.6-.4.8.3.2.7 2 .2 1.4-1 1.2-1.1 2.4 2 .9 1.3.9.5.8 3.1 1.5-.1.2-1.4-1.2-1.2.3-1.1.8-1.3 4-2.5 4.2-.1 1.5 1 .8 1.2.9 3.3.1 2.8.8-.7 1.3.3h2.5l1 .7-.3 1.5-1 1.5-.8 1.7 1.5.1 3.2-.2 2.4 1.7 1.5 2.6 1.7.9.5-2.8 1.9-.7.9-2.9 3.3-.6 6.2-.1.7.7.2.5v2.3l3.1.7.8.6 1.4.2 1.3-.4 5.9-3.3 1.7 3 2.5 2.7 1.1 1.8-.8 1.4-.2 4.1-1.3 2.1 1.4 2.8 3.3 1.2 7.7.2 5-3.5 2-.5 2.6.5 3-.9 1.3-.1.8-1 1.4 1.9v2.1l1.1 2.5.5 4.9 2.4.2 10.2 3.6 4.4 3.4 7.6.6zM922 631.5l1.2-1.7.6-2.3.2-2.5-.7-1.8-.8-.4-1.1-1.7-1.9-1.5-1.1-.3-1.6.7-.8.8-.7 1.3-.2 1.5.2 1.6.9 1.5 1.2 1.5 1.1 1.5 1 1.8 1.1.7 1.4-.7z" vector-effect="non-scaling-stroke"/><path d="M975.5 621.3l7.8 3 .7 1.7.5 2 .3 1.8-.7 2.1-.8 7.1-1.2.6.3 2.8-.6 2.6 2.7 2.6 5.8-.8 1.9-.6 1.2-1 .8.9 1.6.4 2.8 1.2-.3 3.1 1.6 1.9 2.3-2.1 2.5 2.5.9.1 1.3 1.6.8 1.7-.6.6 1.7 2.3 2 1.6-2.6 2-2.5 1.2-.5 1-1 1.1 1.5 2.5 2.1.8 5.8-3.6 2.5-2h6.8l1.4-1.8 2 .6 9.3-1.7 3 1.3 1.7-2.9 1.1-.1 1.5-.8 2.7-.2 2.9 1.1.6-4.5.9-4 5.3-5.6 3.4.2 2.1 2.2 4.8 1.6 5.4 2.7 1.1 2.8-.3 3.7.4 2.3 1.5 1.1-1.6 2.9-5.4 5.3-2.9 1.4-2.1.6-1.2 1.3-.2.9.2 1.3.1 1.6-.1 1.9-.6 3.9-4.8 3.8-5 2-3.4 5.3 1.5 2.5 2.8 1.6 2.4 2.6.1 1.5 3.4 3-1.7 1.6-2.3 1 .1 4.4 2.1 2.2 5.4-.7 4.1.3.3 3.8-.5 1.9-.2 1.8-2.2 2.5-3.2 2-2.5.2-.8 1.3-.4 1.6-1.1.9.6 1.2 1.9 1.1.6 1.4 2.5.2 2.2 1-2.4 1 .5 2.7 2.9 1.7 2.9 1.1-3.3 1.9-1 3.2-1.6 2.6-2.3 8.6.6.8.6 1.8 1 4.5-4.4 1.2.1 1.4-.5 2-1 1.4-1.2.6 1.4.8 3.1 3.4 5 1.4 1.3-2.7 6.4-.4.8 12.9-.3 5-2.1 1-.5.3-.7-.1-1.8.7-2.1.2-.5.2-.5.4-.3.5-.3.5-.3.5-1.7.4h-.2l-.4-.3v-.2l.1-.2-.1-.3-.8-1.3-.9-.9-1.1-.4-1.2.2-.6.2h-.6l-.2-.1-1.2-1.5-.6-.3-.3.2.2 1.1.8 1.3 1 1.1.7.9-.7-.3-1.4-.8-2.3-.9-.6-.5-.4-.7.3-.2.1-.3-.1-.4-.1-.3-.5.5-.5.2-.5-.1-1.3-.3h-.3l-1.2.5-.2.2-.3.4-.1.7-.1.4h-.2l-.5-.5-2-1.2-.2.6h-.3l-.2-.4-1.3.2-4.1-1.1-6.4-.3-6.4.7-5.7-.3-15.6 9.9-14.2 15.7-122.5.7-46.3-.8-.6-3.5-2.5-.2-4.1.3-34.8-8.3-5.2-2.5-5.9-5.3-2.1-.3-29.2-11.8-.8-.7-1.3.4-3.3-.3-6.1-2.9-3.4-.5-6.3-4.3-7.3 1.2.4-1.6 4.2-3.3 30.9-22.5 2.4-2.6-1-2.2-4.7-7.8 5.8-5.4.2-3.8 5.2-2.8 2.9-.9-1.1-2.6.2-2-.1-1 2.9-.1 2.8-6.8 8.1-1.4 11 1.7 5.2-1.1 2.3-2.8 3.2-1.8 4.9-.7 8.4-7.7 2.8-.9 1.2-3.7 2.8-1.1 2.2-3 15.9-14.8 5.8-7.4.2-2-.5-1.1.2-.4.3-.5-.3-.8v-1.3l1.4-.7 7.2-2.2 2.5-2.6 1.5-3-2.5-1.8-1-1.3-.8-.5-.6-2.7-1-1.5 8.6-.1 4.5-3 2.5-1.4 2.7-.9 5.3 2.1-.2 4.2-.5 2.4-.6 1.7-.4 3.3-1.2 4.5-1.4 3.6 8.2 2.7 2.8-.8 1.4-1-.4-2.2.7.6h1.3l1.4-2.3 1.2-2.5 1.8-.4.4 1.3 1.6-.4 1.7 2.4.9.4-.3 2.1 2 .6 2.4-.3 6.1-1.7 1.6.1.6 1.5 1.4 1.3-1.9 3.2 1 3 7.9-3.3 1.5-6.2 3.3-1.3 1.2 1.1.8.9.4-3.7 1-3.8 1-.6 1.4-.2 2.5-1.4 1-.9-.2-1.2.7-.7 2.7-.6 1-.9 1.4-.6 2.3-4.1 2.7-1.3.3-.9.9.1.7.8 1.3-.2.7 1h1.1l2.7 2.6-1.2 2.2.7.5-.4 2.6-.4 1.8-.8 1.1.1 1.5 1.1-.7 2.6-.6 6.5.6.4-4 1.2-.4.9-1.2 3 1.2 1.3-1.3-.9-.6-.1-1.5.7-.8-.2-.5.2-.9 1.7-.9 1-.7h1l2-.6 1.1-1.7.1-1.2 1.9-2.4 4.1 1 .7-1 1.3-.5 2.2-1.3-.4-1.3 1.4-.8 4.3-1.4 2.4-1.9 1.3-1.6-1.1-.9-2.3-.8-1.3 1.5-1.4.6.1-.8-.6-1.5-1.3-2.1-.4-1 .5-1.3 1.3.2 4.5-.8 4.6.7zM969 533.5v.1l3.1 6.3-1.6.3-1.4 1.1-.2 3.1 1 2.2 1.6-1.4 1.4-1.7 1.1-.7.6.6.8-.2 1.4.8-1.6 2.5-1.1 2.7-2.1 3.8-.8 1.2 2.3-1.1 1.2.6-.5 1.6-.4 3.5 3 .7 1.8-3.4 2.7-.7 1.9 2.3-.7 3.1-.8 1.2-.5 1.9-1 2.5-.8-1.5-2.6-1.6-.8-.1.6 3.3 3.3 1.1 1.8 1.7-7.6-.6-4.4-3.4-10.2-3.6-2.4-.2-.5-4.9-1.1-2.5V552l-1.4-1.9-.8 1-1.3.1-3 .9-2.6-.5-2 .5-5 3.5-7.7-.2-3.3-1.2-1.4-2.8 1.3-2.1.2-4.1.8-1.4-1.1-1.8-2.5-2.7-1.7-3-5.9 3.3-1.3.4-1.4-.2-.8-.6-3.1-.7v-2.3l-.2-.5-.7-.7-6.2.1-3.3.6-.9 2.9-1.9.7-.5 2.8-1.7-.9-1.5-2.6-2.4-1.7-3.2.2-1.5-.1.8-1.7 1-1.5.3-1.5-1-.7h-2.5l-1.3-.3-.8.7-.1-2.8-.9-3.3-.8-1.2-1.5-1-4.2.1-4 2.5-.8 1.3-.3 1.1 1.2 1.2-.2 1.4-1.5.1-.8-3.1-.9-.5-.9-1.3-2.4-2-1.2 1.1-1.4 1-2-.2-.2-.7-.8-.3-1.6.4-.7.5h-1.1l.5 2.1.4.7-1.4.4-2.6.5.4 1.5.6.5-1.6.6-.8 1-.6.8-1.7 1.1 1.6 3.3 1.7 2 2.5 1.1 1.1 3 1.4 2.4-.8 4.4-1.8 1.7.7 6.2.2.4-3 1.4-1.7 1.6-2.1 1.1-1 1.6-.2 1.1-.9.7-.7 1.4-1.2-.1-4.9 2.6-1.6.1.1 1.9 1.8 2.4-2.5 2.9-1.8.5v1.1l-.5 1.2-2.3-.8-5.7-3.6-3.1-.9-2.6.5-.3 5.9-5 .5-2.5.6-8.2-1.6-2.9-.1-1.3-2.8-5.6.2-2.4.8-1.9-2.9-4.4-1.4.1-6.7.8-6.3 1.9-2.1.3-3.1v-1.9l-.7-1.9-.8-1-.3-1.5 1.4-2.8 5.3-.8 2.3-1.6-2.3-2.2-1.4-2.6-.1-4.4-.8-4.8-3.1-.6-1-3.5 2.2-2.5.5-4.3-1.7-2.4-1.6-.3-1.3-4-.5-3.6 2.6-1.8 6-2.7-2-3.5-2.9-1.3-1.5-2.1 2.9-1.3-3.2-14.2v-.1l8.5-3.1 1.5-.2 3.2.1 1.5-.3.5-.3 1-1 .5-.3 4.8-.2.7-.2 1.4-.8.8-.2h1.9l.9-.3.7-.6.5-1 .5-.7.7-.3 1.6.4 1.6-.3 4.4.1 1.9-.6 1.4-1.2 1-1.7.5-.6.7-.5.9-.3h.7l2.4 1.2 3.8-.6.4-.5.2-1.1.5-.2.3-.4.1-.6.2-.7.4-.3.7-.1.6-.2.1-.9-2-1.2-.9-1 .4-1.3-.5-.5-.2-.2 1.5-.8.6-.2.3.2.3.2.4.2.5-.1 1.2-.5h.6l1.9.5 1.6-.6h.6l.6.2.3-.1.3-.5v-.4l-.1-.8v-.4l.4-.5 1.2-.8.1-.6V454.6l.2-.7.3-.7.5.3 2.4.4.6.3.5.5.9 1.5.5.6.5.3.7-.4.2-.5.1-.8-.2-1.6-.6-.4-.5-.2-.3-.5-.3-1.4-.1-.3v-.4l.2-.3.4-.3h.4l4.4 1.6.6.8.4 1.4.5.9 1-.4 2.1-2 .5-.2 3.5 1.6 4.8.6 3.2 1.8.7.7 1.9 2.8.7.5 2 .2.9.3 3.4 2.3.4.1.5-.4.8-1.4.5-.4 2.1-.7.3-.3v-.3l.1-.7.3-.7 1-1.6.4-.2 2 .8h.5l.6-.2.5-.3.5-.5 1-.7 1.3-.2 1.4.3 1.1.5-.4.6-.4.7-.2.7.3.7 1.7 2.2 2.4 3.2.4 1.2v1.4l-.1 1.1-.1.6-.2.6-.1.8.4 1.1-.2.5-.3.5-.1.7-.1.8.2.6.9 1.1.2.5-.1 1.2.3 1.4 1 1.1 1.2.7 1 .2h1l.5.1.5.5.8 1.3.3.9v.9l-.3.6-.5.3-1.3.4-.8.7-.1 1.2.2 3-.1.5v.2l.5.6.1.5-.1 1.4.1.2.1.2.5.1.1.2v.4l-.1.7v.6l-.1 1.7-1.4.3h-.4l-.5-.2-.9-.5-.5-.1-.9-.1-.5.4-.3.8.2 1.5 1.5.1.3.1.1.7v1l-.1 1-.2.6 1 .5.3.3.4.7.8 1.5.4.5h.5l.9-.6.6-.8 1.3-2.3.6-.5.7.2.8.4.7.1h.8l.2.2.2.4.2.5.2 2.1.5-.1 1.3-.7.6-.1.2.2.5.5.3.2.4.1.4-.1.8-.4.7-.6.2-.6-.2-1.8.1-.9.3-.7.4-.6.5-.2 4.8.5.6.2.4.2.4.5 1.5 2.7.5.7.7.3.7-.1.5-.3.3-.7v-1.2l-.5-.7-.6-.3-.8-.1-.6-.3-.5-.4v-1.2l.3-.9.5-1.1.1-.5-.2-.4-.6-.5-.8-.5-.3-.4v-.7l.4-.3 2.7.4.8.5.9 1 .8 1.3.3 1.2.3.5 1.1.3.3.8-.1.5-.8 1.9 4.5 1.8v.1l-.4.9-.3.2-.4-.1h-.4l-.1.1-.2.6-.1.1h-.2l-.7-.3-.3.2v.4l.1.6.1.3.4.7.6.5.3.7-.3.9-.6 1.5-.2.9v.6l.5.5.7.2h.8l.5-.4 1-1.2.7-1.2.3-.2h.4l2.4 1.1.7-.3-.1-1.5-.5-1.2-.5-.8-.6-.5h-.8l-2.2.4-.1-.3.1-.7.3-.9.2-.4 1.1-1.2 1.2-.3 6.4.7 1.4-.1.4.1.2.6.2.7v1.6l1.2.6.3.6.2 1.1.4.6 7.3 1.7.3-.1.2-.3.1-.9.2-.2.8.1h.2l.3.3.6.7.3.1.6-.2.3-.2.1-.6-.1-1 .2-.7 1.4-.4.5-.6-.1-.5-.2-.5-.1-.3.3-.2 1.3-.3.4.1.1 1 .2.1 1.4-.4-1.1 6.5-.3 1.1-.5.6-.7.1-3.6-.7-.7.1-.6.3-.5.6-.5 1 1.1.8-2.2.8-.4.5-.6 3.7-1 .2-.5.3-.4.5-.2.8.1.5.8 1-.7 1.4 4 2.2-1.1 2.5 1.6 1.2.3-.1.6-.7z" vector-effect="non-scaling-stroke"/><path d="M1112.1 604.4l-.5.1-.9 3.2-3.4 1.6v1l-.5 1.8-1.2 1.2-1.3.9-.8-.5-3.4.5-1 2.3 1 .4-.2 1.6-1.2 1.2-6.4 3.5-1.6.3-.6-1-1.1.4-.6 1.2-2.7 1.7-.9-.1-1.3 1.2-.2.4-.3.4-.2.1.1.6.4.5.4.5-.2.8.6.4.6.1.4.5.2 1.2.1.2.3.4.4.1.1.5.6 1.5.3.5.3.3h.9l.3.3.2.3.2.2 1.6 2 6.4 4.1.9 5.2-.2 4 1.2.7 1.3 3.6-1.4 3.5-2.2 4-4.9 4.9-7.6-2-5.2-2.3-3.2-2.7-2 .3-1.5-1.1-.4-2.3.3-3.7-1.1-2.8-5.4-2.7-4.8-1.6-2.1-2.2-3.4-.2-5.3 5.6-.9 4-.6 4.5-2.9-1.1-2.7.2-1.5.8-1.1.1-1.7 2.9-3-1.3-9.3 1.7-2-.6-1.4 1.8h-6.8l-2.5 2-5.8 3.6-2.1-.8-1.5-2.5 1-1.1.5-1 2.5-1.2 2.6-2-2-1.6-1.7-2.3.6-.6-.8-1.7-1.3-1.6-.9-.1-2.5-2.5-2.3 2.1-1.6-1.9.3-3.1-2.8-1.2-1.6-.4-.8-.9-1.2 1-1.9.6-5.8.8-2.7-2.6.6-2.6-.3-2.8 1.2-.6.8-7.1.7-2.1-.3-1.8-.5-2-.7-1.7-7.8-3 1.6-2 1.1-2.1.6-1.9 2.4-1.8 3.7-1.5 2.2-.4 2-1.3-2.6-1.5-2.8-1-.6-1.4-1.7-.1-3 .6V603l1.6-4.2 2.5-1.8 1.2-1.3-.6-22.4-.7-3.2-.7-.8-1.8-1.7-3.3-1.1-.6-3.3.8.1 2.6 1.6.8 1.5 1-2.5.5-1.9.8-1.2.7-3.1-1.9-2.3-2.7.7-1.8 3.4-3-.7.4-3.5.5-1.6-1.2-.6-2.3 1.1.8-1.2 2.1-3.8 1.1-2.7 1.6-2.5-1.4-.8-.8.2-.6-.6-1.1.7-1.4 1.7-1.6 1.4-1-2.2.2-3.1 1.4-1.1 1.6-.3-3.1-6.3v-.1l1.8-1.8.6-.6.2-.3.2-.5.2-.7.1-.4.1-.2.5-.2h.2l.6.1.2-.1v-.7l.2-.6.1-.6.1-.1 1.9.1.4.1.9.5.3-.2 1.7-1.3.8-.3h.8l1 .1 1.6.2.4.3.1.6-.1.8.1.7.3.3h.8l.2-.2.5-1 .3-.1h1.6l.2.1.3.5.1.6.3.5.4.1-.1 1 .1.6.9.9 1.3 1.1.7.1.5-.6 1.2-3.8v-.3l-.3-.3-.4-.5-.2-.2.2-2.1.3-.8.3-.5 4 .2.3-.3.4-2 .2-.5.2-.3.3-.1 1.3-.1.2-.2.2-.6.3-1.2.2-.6.2-.4.8-.2h2.1l.8.2 1.9 1.1.7-.1 6.1-4.6 3.8-2.8-1.8-3.1 1.7-1.2.8-.5h.9l2.5.3.9-.2 2.8-1.3 10.5-5.1-.3-.9v-.7l.1-.7.5-.8.5-.7.4-.2 4.9 1.3 1.1-.3 1.5-1.1.5-.3h.4l.8.1h.3l.5-.5.1-.7v-.8l.1-.8.6-.6.6-.2 1.4.1.6-.1 1.7-.9.5-.1h.6l.4.4-.2.9-.4.4-2 .6-.5.3-.5.5-.3.6.3.5 1.2.4.5.4.2 1-.1 1-.4.8-.5.7-.5.8-.3 1.2-.2.5-.2.3-.6.6-.3.4-1.2 1.5h-1.5l-3.1-1.2-1.6-.1-.5.2-.4.3v.3l2.5 4.4.1.5.3 1.5.8 1.3 5 4.2 4.6 3.6 4.5 3.7 4.5 3.6 4.6 3.7 3.3 2.6 3 3.4 3.2 3.6 2.7 4.3 4.3 7.5 2.6 4.7 2.7 4.6 2.6 4.7 3.5 6.5 3.4 6.4 3.5 6.5 3.5 6.4 5.2 9.9 1.2 2.2z" vector-effect="non-scaling-stroke"/><path d="M1185.2 831.5l-.6.3-3.6-1.4.3-3.6-1.3-4-2.5-3.5-1.7-5.6-6.5-8.7-1-2.9-4.7-2-.1-1-.9-.6-2.7.1-.7-.9-1.6-.9-2.8-.1-6.7-1.7-10.5-5.2-1.9-1.2-.1-1.6-6.1-2.3-12.9.7-4.4-6.1-6.5-1.2-2.3.3-3.6-.5-1.6-2.3-2.4-.4-1.9-1.8-7-3.9-4 3.2-1.6-1.6-2.4 1-2.4 1.9-4.7-.8-1.9.9-6.4.4-1.3 2.7-5-1.4-3.1-3.4-1.4-.8 1.2-.6 1-1.4.5-2-.1-1.4 4.4-1.2-1-4.5-.6-1.8-.6-.8 2.3-8.6 1.6-2.6 1-3.2 3.3-1.9-2.9-1.1-2.9-1.7-.5-2.7 2.4-1-2.2-1-2.5-.2-.6-1.4-1.9-1.1-.6-1.2 1.1-.9.4-1.6.8-1.3 2.5-.2 3.2-2 2.2-2.5.2-1.8.5-1.9-.3-3.8-4.1-.3-5.4.7-2.1-2.2-.1-4.4 2.3-1 1.7-1.6-3.4-3-.1-1.5-2.4-2.6-2.8-1.6-1.5-2.5 3.4-5.3 5-2 4.8-3.8.6-3.9.1-1.9-.1-1.6-.2-1.3.2-.9 1.2-1.3 2.1-.6 2.9-1.4 5.4-5.3 1.6-2.9 2-.3 3.2 2.7 5.2 2.3 7.6 2 4.9-4.9 2.2-4 1.4-3.5-1.3-3.6-1.2-.7.2-4-.9-5.2-6.4-4.1-1.6-2-.2-.2-.2-.3-.3-.3h-.9l-.3-.3-.3-.5-.6-1.5-.1-.5-.4-.1-.3-.4-.1-.2-.2-1.2-.4-.5-.6-.1-.6-.4.2-.8-.4-.5-.4-.5-.1-.6.2-.1.3-.4.2-.4 1.3-1.2.9.1 2.7-1.7.6-1.2 1.1-.4.6 1 1.6-.3 6.4-3.5 1.2-1.2.2-1.6-1-.4 1-2.3 3.4-.5.8.5 1.3-.9 1.2-1.2.5-1.8v-1l3.4-1.6.9-3.2.5-.1 1.4 2.7 2.6 4.9 4.4 9.4 4.3 9.4 2.5 5.2.7 2 .2.6.6.9.8.8.8.5.8.1-1.4-2.2-.4-1.2.9-.5.4.2.8 1 .5.2.5-.1.3-.3.4-1.3.3-.6.3-.3 1-.4.2-.2.4-.5.2-.2h.3l1 .1 1-.2 1-.6.9-.9.5-1.4.1-.5v-1.4l-.1-.6-.2-.6-.7-.7-.3-.5-.1-.5v-.7l.2-1.3.2-.7.3-.6.4-.2.6-.1 2.1.3.9-.3.3-1 .1-.6.1-.6.3-.5.3-.4.5-.4.4-.1 3.3 1.6.6.1.3-.3.3-.4.4-.3h.6l.2.5v1.4l.2.7.3.4 1 .6 1.1.6.6.1.6.1.7-.8.3-.2.5.1.5.3.2.5-.1.6-.2.9-1.6 4.1-.7 2.3-.1.6.2.3.5.3.6.1h1.4l2.9-1 3 .1v1.4l.4 1.3.5 1.2.7 1-.6.8-.4 1-.2 1 .3.8.7.4 5.3-.2.5-.4.7-1.1.5-.4h.4l1 .7h.5l1.8-.3 1.2.2 1.1.4.5.3 1.5 1.4.6.3 1.2.2h.7l.6-.3.4-.4.5-.6.5-.4.4.1.4.2.3-.1.3-.3.3-.1h.4l.5.3 1.1-.2.5.3 1.1 1 3.2-2.1 1.7-.8.6-.8v-2.7l.7-.8.9-.2 1.9.6 3.3.3 1.1-.3.9-1 .7-1.4.5-1.6h.7l.6.2h.8l.4-.2 2.8-.3 2.7.3.6 1.1.4.5.5.3 2.8.5.5.3 1.4 1.3.6.3.5.1h1.1l.5.2.5.3.4.4.8 1.4.3.3 1 .5.7.8v2.4l.6 1.2 3.1 2.2.7 1.1.3.7v.6l.2.6.8.9.3.6v.7l-.5 2.1.4 1.2.6 1.2.5 1.2.1.9-.1.9v.8l.3.7.3.2.7.2.3.2.2.3.3.6.2.3h.9l.9-.7.9-.5.8.6.7.9.8.5.8.2.9-.1.9.1.6.6.5.7.8.6h.4l.9-.1.4.2.3.4.6 1.4.3.2.4-.1.4-.3.4-.2.5.1 1.6.7.3.3.8 1.3.2.5-.1.6-.4.3-1 .2-.3.1-.1 2.1.1 1 .5.5 1.4.4.6.4.3.9.2 1.4.1.5.4.7 1.6 1.8.5 1.1.3 3 .7 1.1.9.5 1-.3.4-.3.6-.4.5-.2.5-.1.6.3 1 .8.6.2 1-.1.4-.1.4-.3.8-.7.4-.2.4.1.4.4.3 1.1.4.5.4.1.4-.1.9-.3h.5l.4.2.4.4.3.5.4.2.4-.1.9-.7.4-.2h.5l1 .2v.3l-.2 1.5v.7l.3.4.5.1.4-.1.4-.4.7-.9 1.1-.4 1 .2.6 1.1 1 1.1.9-1.2.8-2.1.6-1.2 1.4-1 1.5-.6 1.7-1.5.4-.2.1-.3.1-.3-.1-.4-.2-.5 1.2-.7.4-.4.2-.1h.3l.2-.1.4-.6.3-.8.4-.5h.8l1 .6h.4l.7-.2h.4l.3.2v.4l-.2.4-.2.5-.1.3v.5l.3.4.6.7-.5.5-.5.3-.4.2-1.2.1-.5.4-.9 1.3-.4.7-.1.5.2.5.5.6.6.4h.5l1.1-.2.6.1 1.7 1.1.5.5v.6l-.2.7-.1.9.4.6.6.5 1.3.6.7.5-.1.4-.4.4-.2.7.2.5.5.5 1.6 1.3.3.3.1.3v.6l.2.3.3.3.3.1.6.1 2.1-.2.7.2.7.3 1.3.9.4.8.5 2.6.4 1.1-3-.9-1-.5-1.1-.3-3.4 1.4-.7-.1-1.5-.5-.6.1-.6.4-.5 1.4-.4.6-1 .8-.4.4-.4.7-.3.8-.1.5v.7l.2.9.6 1.2.8.8.3.7-.6 1.2-.4.5-.2.4v.4l.3 1.6v.5l-.2.4-1.8 2.6-1.2 1.2-.3.4-.3.6-.5 1.3-.2.5-.5.3-2.8 1.2-2.4-.2-.6.3-.6.5-.9 1.2-1.4.7-4.5-.4-5.4.8-.9.6-.7 1.2-3.3 8-.6 4-.3 1.4-.5.9-.2.8-.1.9 2 10.8v1.2l-.4 2.4.1 1.2.4 1 1.7 2.9.2.7-.1.7-.2.7.1.6.2.7v.5l-.2 1.2-.1.8-.2.5-.3.3-1.1.1-.6.2-.5.4-.2.6-.1.7-.1.5-.2.5-.4.5-.2.7v.6l-.2.5-1.6-.1-3.2.5-1.4-.2-.5.1-.5.3-.3.4-.6 1.1-.5.5-1.7 1.2-.7.9-.3.2-1.1.2-.4.2-.4.4-.5 1.1-.5.4-1.9.4-1.8.7-.6.1-.5-.2-.1-.5.2-.5.3-.6.3-.6.1-1.2-.5-1.1-.8-.8-.9-.5-1.2-.1-2.3.6-1.1-.2-1.3-.6-.4-.1-.4.1-3-.3-2.6.3-1.6.9-.6.1-1.7-.4h-2.3l-9.3-3.3-4.2-2.8-1-.5-2.2-.5-.5-.3-1.3-1.1-.6-.2-.6-.1-.7.1-.6.1-.6.3-.2.4v1.5l-.1.4-.2.8-.1.4v.3l.2.7v.4l-.4 1.4-.1.7.1.7.1.6v.6l-.2.6-3.6 7.5-2.2 8.5-1 2.1-.1.6-.3 1.9-.4 1.1-1.6 2.7-1 2.1-.6 2.3-.7 4.9-.6 3.2-.4 1-.6 1.7-1.9 3.2-.9 3.4-.7 1.9-.2.9z" vector-effect="non-scaling-stroke"/><path d="M1185.2 831.5l-.2.8.9 1.4.9.4 3.7.5 2.5 1.1.4.7.1 1.3-.1 1.3-.5 3.2-.7 2.5-1.1 1.8-1.6.3-1.1-.7-2.1-2.4-1.2-.8-1.2-.1-1.3.3-4.7 2.4-1.2.3-1-.5-.4-.5-.4-.3-1.7-.2-.3-.3-.2-.4v-.8l-.1-1.2-.4-1.5-.7-1-.8-.1-1-.3-1 .5-2 1.4-9.7 3.1-2 1.1-1 .4h-1.1l-3 1.2-.6.1-2-.7h-1.2l-3.9 1.5-1.7-.2-.6.1-.5.4-.4 1.3-.4.3-.6.1-1.9-.1-1.7.7-1.7-.3-1.1.1-1 .5-1 .8-2.4 2.2-1.1.6-.5.3-.4 1.1.6.8 3 1.9 1.2.1 4.4-.9.6.1.5.2 1.2 1 4 1.5.4.3.1.4-.1.5-.4.3-1.6.3-.9.4-.5.7v.4l.1.3.5.6.1.4-.1.4-.3.7-.7 2.6-.2 1.4.1 1.3 1 5v1.3l-.7 2.5-.2 1.3.2.6.3.4.8.9.3.5.2.6V885.3l.3.7.4.8.9 1.3 2.9 7.7 2.9 7.6-.1 1.1-.4 1.1-1.2 2.3.3.5 1 .2.9.5.3.5.2.6.1.6v.7l.1.6.6 1.1.1.6-.1.7-.4.5-.4.3-.6.1-.5-.1-1.2-1h-1l-1.1.5-1.9 1.4-2.1 1-1.1.6-.3 1 .5.8.8.7 1.7.8 1.1.2.5.3.3.6-.1.6-.6.4-1.2.1-1.9.7-.4.4-1.2.5h-.4l-.9-.2h-.4l-.4.2-.5.9-.5 2-.4.9-.9 1.4-.2.5-.1.8.1.5.2.5.2 1.3.3.5.6 1 .3.5v.4l-.1.5-.3.6v.4l.6 2.6.2.6.2.4.3.5.5 2.4-.2.7-.3.4-.9.5-1.1-.6-.7-1-.7-1.2-.8-1-1.6-1.5-.9-1.4-.3-.4-1.1-.7-5.4-1.1-1-.1-2 .4-2.3-.1-1.3-.6-.7-.9-1.1-2.6-.7-.9-2-.9-.8-.9-.4-.6-.2-.6-.2-.7v-.7l.1-1.3-.1-.4-.7-.1-.9.2-1.9.9h-1l-.9-.4-1.6-.1-2-.8-2.9-.3-.4-.2-.9-.7-1-.6-2.4-.9-1.6-.1-1.1.1-.5.1-.9.6-.4.2-.5-.1-1-.3-.5-.1-1.1.2-1.1-.1-2.7.2-1.1-.1-1.3-.9-.6-.2h-1.1l-.2.1-.4.3-.7.3-.3-.2-.1-.2-.3-.4-1.6-.4-1.6-.1-.5.1-1.3.6h-.4l-.5-.2-.4-.4-.5-.3h-1l-.6-.2h-.4l-.4.1-1 .5-.8.2-2.4-.4h-.9l-.4-.1-.4-.3-.7-1-.2-.2-.9-.3-2.7-.5-.5-.2-.5.1-1 .3-1 .1h-.5l-.5.4-.5.6-.3.1-.5-.1-.2.1-.2.4-.9.5-.5.1h-1l-1 .4-.5.1-.6-.1-1.3-.6h-.6l-.5.2-.7.7-.5.1-.2-.1-.3-.5-.2-.2h-.3l-.5.2-.3.1-2.1-.7h-2.2l-1.8-.4h-.6l-1.6.5h-.6l-1.9-.6-.9-.1-1.3.1-.8-.8-4.7-.7 1.7-1.2-2-1.8-2.9-1.2-2.1-1.7-.7-1.2-.3-.9-.2-1-.5-1.6 1.6-3.3 1.6-2.4-2-1.2h-2.2l-.8-1-.9.4-2-.5-2.1-.9 6.2-10.6 1.2-3.1.2-3.8-2-2.5-2.4-2.3-4.1-2.4-5.4-.8-3.6-3.4-1.3-3.6-.5-4.7-9.4-8.7-1-2.3-.4-3-2.4-.5-2.4-.1-2.1-3.3.8-2.9 6-.4-.5-1.7-.5-1.9-.5-5.7.6-8.4 3.1-6.3 14.2-15.7 15.6-9.9 5.7.3 6.4-.7 6.4.3 4.1 1.1 1.3-.2.2.4h.3l.2-.6 2 1.2.5.5h.2l.1-.4.1-.7.3-.4.2-.2 1.2-.5h.3l1.3.3.5.1.5-.2.5-.5.1.3.1.4-.1.3-.3.2.4.7.6.5 2.3.9 1.4.8.7.3-.7-.9-1-1.1-.8-1.3-.2-1.1.3-.2.6.3 1.2 1.5.2.1h.6l.6-.2 1.2-.2 1.1.4.9.9.8 1.3.1.3-.1.2v.2l.4.3h.2l1.7-.4.3-.5.3-.5.3-.5.5-.4.5-.2 2.1-.2 1.8-.7.7.1.5-.3 2.1-1 .3-5-.8-12.9 1.9-.9 4.7.8 2.4-1.9 2.4-1 1.6 1.6 4-3.2 7 3.9 1.9 1.8 2.4.4 1.6 2.3 3.6.5 2.3-.3 6.5 1.2 4.4 6.1 12.9-.7 6.1 2.3.1 1.6 1.9 1.2 10.5 5.2 6.7 1.7 2.8.1 1.6.9.7.9 2.7-.1.9.6.1 1 4.7 2 1 2.9 6.5 8.7 1.7 5.6 2.5 3.5 1.3 4-.3 3.6 3.6 1.4.6-.3zm-129.4 79.8l.7-2.2.1-3-.9-.8-1.5.5-.8.8-.9 1.1-.7 1.4-.7.6v1.6l.8.7 1.6-.1 1.3.4 1-1zM412.1 852.9l.5.1.3-.1.4-.5h.2l.1.4.2.1.2.3V854.4l.2.3.3.6.1.2-.5-.1h-.3l-.4.2-.3.1-.1-.2.2-.4v-.2l-.3-.1v-.2l.1-.3-.2-.4-1.1-.8-.4-.6.1-.6h.2l.1.5.4.5zm-15.3.3l.3.2.3-.1.1.8v.9l.3.6.9.3.4.4h.4l.8-.6.3-.1-.4 1.1-.7.4-.8-.1-.7-.4-.4-.4-.1-.3-.1-.4-.1-.6-.3-.5-.9-.9-.4-.9v-.7l1.3-3.1.3-.3.4-.2 1.1-.3v.6l-1.5.9-.3.8-.1.5-.4.8v1.1l.3.5zm7.7-5.3l.2.4-.3.7-.1.3-.2.2-.1.2.2 1.3-.2.7-.5.5-.6.1-.4-.2-.2-.8.1-.8.2-.9.1-.7.1-.6.3-.2.5-.1h.5l.3-.2.1.1zm57.6-11.1l-.7.2-1.2-.4-.9-.8-.7-.8-.2-.8.3-.5.4-.3.3-.3.1-.2-.1-.3.2-.1.8.1.5.1.4.6.4 1 .3 1.2.1.5v.8zm92.1-23.8l1.7 4.6 4 27.4v.2l-4.1 1.3-13.7 4.4-.1.1v15.8l.1 7.9v99.4l-1.7-.1-.8.1-2.2 1-2.2.3-1.5.6-3.1.2-.7-.3-.7-.4-.5-.4-.4-.5-.7-1.7-.3-.5-.4-.5-1.5-1-.9-.8-.7-.9-3.2-5.6-3.6-4.9-.3-.6-.1-.7v-.7l.1-.6v-.5l-.2-.7-.6-.7-4.1-3.8-9.5-6.4-3.8-2.5-1.7-.7-1.9-.2-9.6 1.7-4.3.8-1.6.3-5.4 2.2-1.4.8-3.8 1.4-5.2 4.4-3.3 3.2-3.7 3.8-1 1-.1-.7.2-.7 1-2.4.2-1.2-.2-1.3-.2-.7-.3-.6-.5-.4-.2-.3-.1-.4.2-1.1v-.4l-.2-.3-.7-.8.3-.5.2-.6.2-.6v-.7l.2-.5.3-.2.4-.2.4-.3 1.2-2.3 1.4-1.8.2-.6.1-.4v-1.1l.1-.2.7-.8.2-.3.1-.3v-.5l.1-.3.4-1.3.2-1.2V933l-.3-1.3-.6-1.4-.5-.8-1-.7-.3-.7v-.7l.2-.3.2.4.2.7.3.7.4.3.2.1.9.6.1.2.1.4h.1l.4 1.3.2.5.3.3.2-.3.3-.6.2-.8.1-.7-.2-1.5-.6-.9-.9-.6-1.1-.1-.1-.8-1.3-.8-2.5-.9-2.4-.2h-.4l-.3.1-.3.1-.3.2-.1.2-.3.6-.1.2-.6-.3-1.7-2.2-.9-.7-.6-.1-2.1.3-1.6.7-.9.6-.5.2-.5-.2-1.5-1.8-.3-.5-.6-1-.3-.6-.3-.5-.2-1.3-.3-.6-1.1-1.4-.4-.7-.3-.1h-.3l-.2-.2-.2-.4.1-.3.2-.2.1-.4-.1-.7-.3-.6-.4-.4-1 .5-1.2-.1-.6.1-.1.2-.4.4-.2.1-.3-.1-.6-.3-.3-.1-2.3.5h-2.2l-.3-.3.1-.8.8-2.7.3-1.4.2-4.5-.2-.6-.7-1.6-.1-.3-.1-.3v-.8l-.1-.3-.3-.4-1-.7-.2-.6-.1-.5-.2-.1-.5.2-.5-.1-.4-.3-.6-.9-2.3-4.8-.2-.6-.1-.9-.5-.7v-.3l.1-.8-.1-.3-.2-.4-.7-.6-.1-.3-.2-.7-.4-.5-.3-.7-.2-.3-.3-.1-.5-.2-.2-.2-.2-.4v-.3l.1-.3.1-.5-.1-2.8-.1-.7-.2-.6-.6-.8-1-.7-2.1-1-8.6-1.6-1.1-.5-.5-.4-.5-.5-.5-.6-.2-.7.2-1.6v-.7l-.2-.7.2-.2-.2-.7-.1-1.1v-1.1l.3-.6.4.9.4-.4.2-1 .1-.5.3-.2v-.9l.1-.3.3-.3.2.1.3.3.2.1 3.9.8 1.2-.1 1.1-.4h.6l.3.6.3.1h2.2l.3.4.3.1.3-.2.3-.6.1-.1.3-.1 1.2.1.7.1.5.3.9.8.7.9.2.2.6-.1.3.1.1.2v.3l-.2.1-.3.1.4.5.7.5 2 .9.7.1h.7l.7-.2.6-.3 1.3-1.3.1-.3.4-.2H428.7l.7-.2h.4l-.2 1.1.7.2 1.7-.4 1.6.8.5-.1.4-.4-.1-.5-.4-.4-.4-.3-1.4-.8-1-1h-.6l-1.2.4-1.1.1-.7-.6-.8-2.6-.6-1-.8-.8-2-1.2-.6-.7-.9-.1-.2-.1-.1-.2-.3-.3-1.6-1-.2-.6v-.8l.1-.7.4-.3.2-.1.1-.3v-.3l-.1-.2-.2-.2h-.4l-.3-.1-.1-.4.3-.6.5-.3.7-.2.5-.1.6.1.3-.1.3-.3.4-.7.3-.2 1-.7.6-.3.6-.2.4.3.4.6.5.5.5.1.2-.5-.1-.7-.4-.6-.3-.5-.1-.4.1-.4.2-.4.1-.3-.1-.3-.3-.7.2-.5.3-.6.7-1.1.2-.5.2-.6 2.2-2.6.2-.6.1-.8.1-.6.4.3.6 1.2.9.4h1.2l1.2-.3.9-.6.8-.9.2-.1h.5l.3-.1.3-.6.3-.7.3-.6.5-.4.3.4.3.4.1.6.1.4 2.1.4.4.2.7.6.4.2.5-.2.8-.6.4-.2.6.1 1 .3.5.1 7.5-1 1.1.3 1.8-.3 1.1.3 4.2 1.8 2.4.4 1.2.7.6.2 2.3-.3.6.1 1.4.6h.6l.5-.2 1-.6.6-.1.1-.1.3-.3.2-.1.6.2.4-.3.2-.3-.1-.3-.4-.3-2.6-.5-.2-.2-.3-.4-.2-.2-.8-.1-1.1-.3-3.1-1.6-.6-.1-.2-.1-.5-.7-.1-.2-.3-.1-.9-.1-1.2-.5-.4-.3.2-.5-.3-.5v-.3l.2-.4v-.3l-.1-.5.1-.9.1-.6.3-.4.5-.2.4-.2.2-.7.4-1.2 1-1.7.1-.1 4.3 1 12.1-3 5.4-3.4-1.5-1.8 2.3-2.3 3.9-5.3 2-.6 1.4.1.8-.7 19.1-4 8.4-.4 5.6-4.8 4.9 4.4 1.7-1.1 2 2 .1 3.4 2.7 1.3 2.4-.3.9 1.6 1.4 1 2.5-.2 1.9.7h1.2l2.7 1.3zM864.4 818.2l3.1 5 5.4 14.1 7 25.1 2.6 16.9.2 2.6-.8 1.2-5.9 17.8-2.2 3-.6 1.1 1.3.5.9.8-.1 1.5 1.4 2.1 1.1.6 2.6.9 2 .1 1.2.3 1.7 1 1.9.7.5 2.2.8.9 1-.1.7.7-.6 1.1 1.4 1-.4 1 .6 1.1-.2 2.5.3 2.9 1.3 2 1.8.4 1 .5 1.6 1.4 1.1 1.5.7 1.1 1.1.5 2.5 2.8 1.8.7.1 1 .6.4.1.4 1.3 1.3h.1l-.6.5-.3.6.2.4.9 1 .6.3.7.2-1.7 1.3-.9.5-.9.1-1.2-.3h-.6l-.3.5-.2.6-.3.5-.6.8-.6 1.1-.5 1.2-.5.9-.7.4-.6-.1-.5-.2-.4-.4-.2-.6-.2-.4-.4-.4-.4-.4h-.4l-2.3 1-1.1.9-.6 1.4-.2.5-.3.4-.4.2-.4.1-.5.3-.3.4-1.7 2.8-.6.8-2 1.5-1.4.5-.4.3-.3.5-.7.9-1 .4-2.8.1-3.3.9-.4.4-.7.8-2.5 1.9-1.4.5-.6.5-.3.8.1.4.4.7v.4l-.3.1-1.4-.2-.4.1-.9.6h-.4l-.7-.3-.4.1-1.4.9-.5.6-.3.6-.5-.1-.4.1-1.1.6-.2.1-.2.3.1.2.4.5.1.4v.5l-.4 3.1-.2.4-.4.4-.8.6-.9.4-1 .2-.6.1-.3.5-.6 1-1.7.8-.6.7-.9 2.6-.5.6-1.5.7-.7.5-.3.7-.4-.2V988.8l-.1.3-.3.3-.1.5.2 2.7.2.6.2.3.2.1.6.2v.4l.1.4.2.4.2.3-.1.3-.6.9.5.3-.2.4-.5.3-.6-.1-1-.5h-.3l-.2.1-.1.3-.2.3-.4-.1-.3.3-.1.2-5.7-3-1.7-1.3-2.2-2.3-.8-.4-.9-.2-.2-.1.1-.3.2-.2.9-.3.4-.4.3-.4.3-.4.4-.8.3-1.1.3-1.1v-.9l-.3-.5v-.3l.5-.4-.3-.1.1-.3-.1-.8-.5.1-.4.7-.2-.3-.3-.1-.3.2-.3.2-.3-.5-.2-1.3-.3-.6-1.1-1.4-.2-.4-.3-.9-2 1.3-.5.1-.5-.2-1.1-.5-.5-.2-3.1.2-5.2.3-14.5.9-2-.5-1.1-1.4-2.1-9.6-1.6-8-.8-8.3-.1-.1h-.6l-11.2-.1-.2-.1-.1-.4.2-11.9 4.2.7 7.6-7.5 3.7-1.8 2.2.8 5.2-4.6 11.8-7.9 12-5.9 1.1-1.2-.6-.4-1.7-1.4-.2-2.4-1-.1.1-1.2-.9.4-.7 2.8-.4-3.3 2.1-2 .6-3 1.8-3.1.1-3.5 2.5 1.5 1-2.7-.2-2.3-.7-1.3 1.7-2h2.2V886l-5.7-4.3-2.3-2.9-.3-1-1.4-1.1-1.5-.6-1 .2-2.4-1.8-.3-26.2-1.9-2.3-3.2-2-2.3-2 .1-4.1 1.6-8.2 1.9-3.2-1-3.6-2.6-2.1-.4-3.4 46.3.8z" vector-effect="non-scaling-stroke"/><path d="M1026.6 920.9l-.6.1-.3.3-.8 2.1-.2.4-.6.6-.7.6-.7.3h-.7l-1.5-.7h-.5l-1 .1-5.5-.8-1.6.1-.7-.2-1.4-.9-.6-.4-.7-.5-1.5-.4-.7-.4-.7-.6-2.1-1-2.8-.5-.8-.3-2.5-2-.4-.4-.6-1-.3-.5-.5-.2-1-.3-.8-.6-1.1-.1-.5-.3-1.2-1-.7-.4-.8-.1-.7-.3-1.3-1.2-.7-.4.7.9.2.6v.5l-.4.2-3.9.5-.4-.1-.9-.9-.5-.2-.7.6-.9 2.3-.9.5h-1.4l-4.2 1.8-1.2.7-.3.3-.3.5-.9 2.7-.5.9-.2.5-.1.6v.5l.3 1.1.1.6-.1.6-.6 1.4-1.3 2.9-.3 1.2-.1 1.3.2 1.1.4 1 1.8 3.5v.5l-.7.2-1.5-.6-2.2-.4-.3-.4v-1.8l-.3-.4-.6-.2-1.7-.1-.5-.2-.4-.2-.5-.4-.9-.4h-1.1l-3.1.5h-.8l-.9-.2-.8-.4-.6-.6-.9-1.6-.5-.6-.8-.4-3.5-.9h-1.7l-.9-.1-2.9-2-1.6-.6-3.1-.2-.4.1-.7.4h-.4l-.7-.2-2.9-1.6-1.5-.4-.4-.1-.4-.3-.3-.2-.4.1-.9.3-1.7.1-.8.3-2.7 1.7-.4.1-.3-.1-1-.9-.2-.1h-.3l-.4.2-1.2-.4h-.6l-.4.4-.3.5-.3.5-.4.4-.4.2-.5-.1-.6-.3-.5-.2-.5.2-.5 1-.3.4-.4.3-.9.3-.2.3-.1.7.1 1.3-.2.5-.4.4-2.1.4-.9.5.3 1.3.2.3.9.8.2.3-.1.4-.2.3-.4.2h-.4l-1.1-.8-.4.4-.3.5-.3.7-.2.6.1.4.2.4-.2.4-.8 1-.3.3h-.1l-1.3-1.3-.1-.4-.6-.4-.1-1-1.8-.7-2.5-2.8-1.1-.5-.7-1.1-1.1-1.5-1.6-1.4-1-.5-1.8-.4-1.3-2-.3-2.9.2-2.5-.6-1.1.4-1-1.4-1 .6-1.1-.7-.7-1 .1-.8-.9-.5-2.2-1.9-.7-1.7-1-1.2-.3-2-.1-2.6-.9-1.1-.6-1.4-2.1.1-1.5-.9-.8-1.3-.5.6-1.1 2.2-3 5.9-17.8.8-1.2-.2-2.6-2.6-16.9-7-25.1-5.4-14.1-3.1-5 122.5-.7-3.1 6.3-.6 8.4.5 5.7.5 1.9.5 1.7-6 .4-.8 2.9 2.1 3.3 2.4.1 2.4.5.4 3 1 2.3 9.4 8.7.5 4.7 1.3 3.6 3.6 3.4 5.4.8 4.1 2.4 2.4 2.3 2 2.5-.2 3.8-1.2 3.1-6.2 10.6 2.1.9 2 .5.9-.4.8 1h2.2l2 1.2-1.6 2.4-1.6 3.3.5 1.6.2 1 .3.9.7 1.2 2.1 1.7 2.9 1.2 2 1.8-1.7 1.2 4.7.7.8.8zM1055.8 911.3l-1 1-1.3-.4-1.6.1-.8-.7v-1.6l.7-.6.7-1.4.9-1.1.8-.8 1.5-.5.9.8-.1 3-.7 2.2zM922 631.5l-1.4.7-1.1-.7-1-1.8-1.1-1.5-1.2-1.5-.9-1.5-.2-1.6.2-1.5.7-1.3.8-.8 1.6-.7 1.1.3 1.9 1.5 1.1 1.7.8.4.7 1.8-.2 2.5-.6 2.3-1.2 1.7zM600.4 626.7zM1038.5 556.8zM596.9 628.9z" vector-effect="non-scaling-stroke"/></g></svg>