<?xml version="1.0" encoding="UTF-8"?>
<!DOCTYPE svg PUBLIC "-//W3C//DTD SVG 1.1//EN" "http://www.w3.org/Graphics/SVG/1.1/DTD/svg11.dtd">
<!-- Creator: CorelDRAW X7 -->
<svg xmlns="http://www.w3.org/2000/svg" xml:space="preserve" width="195.086mm" height="297.392mm" version="1.1" style="shape-rendering:geometricPrecision; text-rendering:geometricPrecision; image-rendering:optimizeQuality; fill-rule:evenodd; clip-rule:evenodd"
viewBox="0 0 19509 29739"
	xmlns:xlink="http://www.w3.org/1999/xlink">
	<defs>
		<style type="text/css">
			<![CDATA[
				@keyframes dash {
					from { stroke-dashoffset: 110000; opacity: 0; }
					5%, 14% { opacity: 1; }
					20% { opacity: 0; }
					25%, 99% { stroke-dashoffset: 0; }
				}
				.path {
					stroke-dasharray: 110000;
					stroke-dashoffset: 0;
					opacity: 0;
					animation: dash 8s linear infinite;
					animation-delay: 1.5s;
				}
			]]>
		</style>
	</defs>
	<g id="contour">
	  <metadata id="CorelCorpID_0Corel-Layer"/>
	  <path fill="#ffffff" fill-opacity="0" stroke="#fff" stroke-opacity="0.7" stroke-width="100" class="path animated" d="M19508 18309c-59,-3 -69,-33 -106,-58 -574,-333 -1211,-804 -1814,-960 -50,-14 -107,-9 -165,-8 -118,3 -405,15 -517,2 -40,-5 -354,-245 -487,-295 -38,-14 -24,-11 -50,-31 -9,-7 -1,-2 -21,-16l-112 -104c-133,-106 -115,-67 -258,-223 -687,-749 -808,-532 -1457,-1073l-321 -207c-586,-419 -423,-401 -856,-881l-220 -301c-41,-82 -172,-284 -169,-355 80,-6 128,19 193,58 882,523 1264,331 2019,169 73,-31 170,-65 239,-100 2,-1 5,-3 8,-4 620,-308 1124,-885 1678,-1189 307,-168 498,-371 834,-505 51,-20 77,-36 112,-69 157,-152 446,-94 474,-77 140,83 495,538 538,667l65 130c16,31 7,40 19,68 30,-25 19,-8 19,-64 0,-15 -3,-35 -1,-49l19 -54c64,14 128,160 181,233 15,20 29,43 39,61 27,54 68,167 117,186l0 -569c-41,-18 -82,-143 -100,-181 -18,-38 -75,-73 -111,-180 -14,-41 -23,-53 -42,-88l-48 -94c-15,-24 -1,7 -14,-25 -32,-86 -73,-196 7,-224l148 -36c51,-16 76,-61 160,-70l0 -2374c-87,-3 -60,-13 -109,-42 -26,-16 -22,-8 -51,-21 -82,-37 -100,-78 -187,-102 -25,-7 -5,1 -27,-10 -2,-1 -5,-3 -8,-4 -74,-42 -168,-22 -250,-35 -99,-16 -157,53 -215,-45 82,-120 63,-73 -57,-236 -184,-4 -670,-50 -677,-317 -1,-31 3,-91 -5,-118 -9,-36 -132,-203 -174,-391 -36,-157 -74,-129 -91,-259 -12,-91 -45,-75 -78,-137l-30 -65c-109,-161 -200,-347 -313,-518 -32,-49 -89,-135 -141,-159 -56,-25 -59,-41 -108,-73 -63,-43 -67,-104 -113,-178l-17 -31c-19,-32 -61,-42 -108,-47 -2,-2 -3,-7 -4,-8l-68 -89c-2,-2 -4,-4 -6,-6 -28,-21 -3,-2 -30,-18 -13,-8 -16,-7 -29,-20 -156,-145 -670,-281 -876,-310 -25,-4 -53,1 -78,-6 -25,-7 -49,-40 -67,-59l-17 -19c-55,-69 -67,-179 -152,-201 -57,-15 -103,-39 -152,-25 -77,22 -169,104 -224,8 -54,-95 -62,-48 -131,-113 -29,-28 -16,-21 -32,-72 -26,-79 -40,-26 -80,-91 -42,-70 0,-236 -1,-320 -1,-40 -20,-307 -27,-327 -520,-1587 -388,-2251 -2185,-3744 -72,-58 -64,-42 -138,-59 -36,-8 -72,-48 -116,-73l-85 -48c-1896,-1195 -6670,-1108 -7604,-463l-117 99c-66,45 -165,65 -223,114 -74,61 -170,32 -328,154l-460 336c-38,23 -64,29 -96,60 -99,96 -146,77 -231,237 -14,25 -14,32 -26,58l-220 336c-41,51 -112,121 -127,184 -26,109 -9,250 -79,333l-65 47c-2,1 -5,3 -7,4 -56,37 -102,102 -146,152 -54,60 -11,-14 -47,82 -12,32 -14,30 -29,57 -42,79 -58,276 -21,365l50 144c9,22 11,14 24,46 50,120 42,94 9,180 -11,29 -7,33 -22,64l-77 177c-30,67 -35,131 -51,199 -21,89 -56,181 -61,274 -3,59 -16,81 -30,140 -13,53 -1,104 -19,154 -26,74 -14,64 -27,139 -8,48 -23,57 -35,131 -105,544 -255,1421 -462,1904 -17,39 -35,67 -37,133 -4,234 17,161 98,326 7,13 23,53 26,58l116 86c2,2 5,4 7,5 2,2 5,4 7,6 2,1 5,3 7,5l60 36c13,11 33,32 42,45 24,39 12,14 22,67 56,281 -166,102 -233,203 -86,131 238,118 221,242 -4,30 -30,64 -35,75l-89 224c-22,69 -74,128 -108,194l-58 87c-73,131 -124,285 -191,424l-43 76c-8,19 0,0 -10,26 -22,62 -24,50 -47,98 -95,203 -66,188 -115,346 -64,209 -127,376 -133,623 -12,525 281,623 715,763 65,22 264,18 283,73 1,3 2,6 3,10 75,269 -48,769 54,943l251 278c181,172 -168,380 385,867 130,138 358,162 291,427 -2,557 -190,859 -127,1482 17,166 339,702 474,807 -14,41 -36,49 -63,85 -60,79 -193,214 -268,288 -32,30 -31,47 -61,72 -66,55 -276,159 -360,183 -238,69 -237,154 -311,241 -83,100 -180,188 -256,288 -61,81 -198,239 -227,329 -56,178 54,624 120,790 11,27 30,59 42,88 50,124 168,849 131,953 -18,52 -54,136 -77,186 -472,1006 -740,2088 -1120,3119 -249,673 -128,1381 -177,1884 -40,150 -35,330 -65,478l-90 730c-53,517 -30,1079 -41,1609 -2,90 -19,150 -19,252 -3,454 23,885 23,1338 -1,182 19,342 22,518 4,163 13,346 16,521 123,26 440,10 583,10l13302 0c133,0 4702,25 4845,4 7,-13 -1,-11023 -1,-11430z"/>
	</g>
</svg>
