<?xml version="1.0" encoding="utf-8"?>
<!-- Generator: Adobe Illustrator 19.0.0, SVG Export Plug-In . SVG Version: 6.00 Build 0)  -->
<svg version="1.1" id="Layer_1" xmlns:sketch="http://www.bohemiancoding.com/sketch/ns"
	 xmlns="http://www.w3.org/2000/svg" xmlns:xlink="http://www.w3.org/1999/xlink" x="0px" y="0px" viewBox="-213 297 184 200"
	 style="enable-background:new -213 297 184 200;" xml:space="preserve">
<style type="text/css">
	.st0{fill:#E23237;}
	.st1{fill:#F8A115;}
	.st2{fill:#EC8213;}
	.st3{fill:#FFFFFF;}
</style>
<title>shield-large</title>
<desc>Created with Sketch.</desc>
<path id="Fill-1" sketch:type="MSShapeGroup" class="st0" d="M-121.8,309L-121.8,309l-82.9,29.4l12.6,109.2l70.1,38.8l71.1-39.3
	L-37,337.9L-121.8,309"/>
<path id="Fill-2" sketch:type="MSShapeGroup" class="st1" d="M-37.2,337.9L-122,309v177.4l71.1-39.3L-37.2,337.9L-37.2,337.9z"/>
<path id="Fill-3" sketch:type="MSShapeGroup" class="st2" d="M-204.8,338.4l12.6,109.2l70.1,38.8V309L-204.8,338.4L-204.8,338.4z"/>
<path id="Fill-4" sketch:type="MSShapeGroup" class="st3" d="M-104.3,402.2l-17.7-36.5l-15.2,36.5H-104.3L-104.3,402.2z
	 M-97.6,417.6h-46.5l-10.4,25.9l-19.3,0.4l51.8-115.1l53.7,115.1h-17.9L-97.6,417.6L-97.6,417.6z"/>
</svg>
