<?xml version="1.0" encoding="utf-8"?>
<!-- Generator: Adobe Illustrator 17.1.0, SVG Export Plug-In . SVG Version: 6.00 Build 0)  -->
<!DOCTYPE svg PUBLIC "-//W3C//DTD SVG 1.1//EN" "http://www.w3.org/Graphics/SVG/1.1/DTD/svg11.dtd">
<svg version="1.1" xmlns="http://www.w3.org/2000/svg" xmlns:xlink="http://www.w3.org/1999/xlink" x="0px" y="0px"
	 viewBox="0 0 672.6 185.2" enable-background="new 0 0 672.6 185.2" xml:space="preserve">
<g id="Фон__x2B__Слой_13__x2B__Слой_6__x2B__Слой_3__x2B__Цветовой_тон_x2F_Насыщенность_3_xA0_Image_1_">
</g>
<g id="Слой_20_xA0_Image_1_" opacity="0.251">
</g>
<g id="Слой_14_xA0_Image_1_" opacity="3.137255e-002">
</g>
<g id="разработка_web-сайтов">
	<g>
		<path fill="#FFFFFF" d="M61.9,154.1c0,4.4-1,7.7-3,9.7c-2,2.1-5,3.1-9,3.1h-3v17.7H44v-42.8h5.9c4.2,0,7.2,1,9.2,3
			C60.9,146.8,61.9,149.9,61.9,154.1z M46.8,164.3h2.9c3.4,0,5.7-0.8,7.1-2.4s2.1-4.2,2.1-7.8c0-3.5-0.7-5.9-2.2-7.4
			c-1.5-1.5-3.7-2.2-6.8-2.2h-3.2V164.3z"/>
		<path fill="#FFFFFF" d="M88.4,184.7l-3.8-15.5H74.2l-3.7,15.5h-3l10.3-42.8h3l10.5,42.8H88.4z M83.9,166.2l-3.8-16
			c-0.4-1.8-0.7-3.5-0.9-5.1c-0.2,1.7-0.4,3.4-0.8,5.1l-3.7,16H83.9z"/>
		<path fill="#FFFFFF" d="M115,173.2c0,3.8-1,6.8-2.9,8.9s-4.6,3.2-8.1,3.2c-2.7,0-5.2-0.5-7.5-1.6v-3.2c1,0.6,2.2,1.1,3.5,1.5
			c1.3,0.4,2.7,0.5,4,0.5c5.3,0,7.9-3.1,7.9-9.2c0-3.2-0.8-5.6-2.3-7.1s-3.9-2.3-7.1-2.3h-2.9v-2.8h3.1c2.8,0,4.9-0.8,6.4-2.4
			c1.5-1.6,2.3-4,2.3-7.1c0-2.6-0.6-4.5-1.7-5.8s-2.7-1.9-4.8-1.9c-1.2,0-2.2,0.3-3.2,0.8c-1,0.5-1.8,1.2-2.4,2l-1.9-2
			c2.1-2.3,4.7-3.5,7.8-3.5c2.9,0,5.2,0.9,6.8,2.8s2.4,4.4,2.4,7.6c0,2.8-0.7,5.1-2,7c-1.3,1.9-3.1,3.1-5.3,3.7v0.2
			c2.6,0.3,4.6,1.4,5.9,3.3C114.3,167.7,115,170.1,115,173.2z"/>
		<path fill="#FFFFFF" d="M144.9,154.1c0,4.4-1,7.7-3,9.7c-2,2.1-5,3.1-9,3.1h-3v17.7H127v-42.8h5.9c4.2,0,7.2,1,9.2,3
			C144,146.8,144.9,149.9,144.9,154.1z M129.9,164.3h2.9c3.4,0,5.7-0.8,7.1-2.4s2.1-4.2,2.1-7.8c0-3.5-0.7-5.9-2.2-7.4
			s-3.7-2.2-6.8-2.2h-3.2V164.3z"/>
		<path fill="#FFFFFF" d="M171.4,184.7l-3.8-15.5h-10.4l-3.7,15.5h-3l10.3-42.8h3l10.5,42.8H171.4z M167,166.2l-3.8-16
			c-0.4-1.8-0.7-3.5-0.9-5.1c-0.2,1.7-0.4,3.4-0.8,5.1l-3.7,16H167z"/>
		<path fill="#FFFFFF" d="M185.5,144.6v16.3h4.6c3.8,0,6.7,1,8.5,2.9c1.8,1.9,2.7,4.9,2.7,9c0,3.8-1,6.7-3,8.8
			c-2,2.1-4.7,3.2-8.2,3.2h-7.5v-42.8h16.7v2.8H185.5z M185.5,182h4.7c2.6,0,4.6-0.8,6-2.4c1.4-1.6,2.1-3.9,2.1-7
			c0-3.1-0.7-5.5-2-6.9c-1.3-1.5-3.4-2.2-6.2-2.2h-4.7V182z"/>
		<path fill="#FFFFFF" d="M234.8,163.2c0,7.1-1.1,12.5-3.2,16.3s-5.2,5.7-9.2,5.7c-4,0-7.1-1.9-9.2-5.8s-3.1-9.3-3.1-16.4
			c0-7.4,1-12.9,3.1-16.5c2.1-3.6,5.2-5.4,9.3-5.4c4,0,7,1.9,9.1,5.7C233.8,150.7,234.8,156.1,234.8,163.2z M213.1,163.2
			c0,6.4,0.8,11.2,2.4,14.4s3.9,4.9,7,4.9c3.1,0,5.4-1.6,7-4.8s2.4-8,2.4-14.5c0-6.3-0.8-11.1-2.3-14.4c-1.6-3.2-3.9-4.8-6.9-4.8
			c-3.1,0-5.5,1.6-7.1,4.9C213.9,152.1,213.1,156.9,213.1,163.2z"/>
		<path fill="#FFFFFF" d="M253.5,184.7h-2.9v-40.1h-8.5v-2.8H262v2.8h-8.5V184.7z"/>
		<path fill="#FFFFFF" d="M273.7,162.5l12.1-20.7h3.1l-12.2,20.7l13.2,22.1h-3.3l-12.9-21.9v21.9h-2.9v-42.8h2.9V162.5z"/>
		<path fill="#FFFFFF" d="M314.4,184.7l-3.8-15.5h-10.4l-3.7,15.5h-3l10.3-42.8h3l10.5,42.8H314.4z M309.9,166.2l-3.8-16
			c-0.4-1.8-0.7-3.5-0.9-5.1c-0.2,1.7-0.4,3.4-0.8,5.1l-3.7,16H309.9z"/>
		<path fill="#FFFFFF" d="M373.4,141.8h2.9l-9.1,42.8h-3.5l-6.5-32.1c-0.1-0.5-0.5-2.9-1-7l-0.4,2.8l-0.7,4.2l-6.4,32.1h-3.4
			l-9.2-42.8h3l6,29.5c0.9,4.8,1.5,8.2,1.8,10.1c0.4-3.1,1-6.4,1.7-10l6-29.6h3.3l6,29.5c0.6,3.2,1.1,5.8,1.3,7.9l0.3,2.2
			c0.6-4.1,1.1-7.5,1.7-10.1L373.4,141.8z"/>
		<path fill="#FFFFFF" d="M400.4,184.7h-15.5v-42.8h15.5v2.8h-12.7v16.3h12v2.8h-12v18.3h12.7V184.7z"/>
		<path fill="#FFFFFF" d="M411.6,141.8h8.2c3.4,0,5.9,0.9,7.7,2.6c1.8,1.7,2.7,4.3,2.7,7.6c0,5.8-2.1,9.1-6.4,10v0.2
			c2.4,0.5,4.3,1.6,5.4,3.3s1.8,4,1.8,7c0,3.8-0.8,6.8-2.5,9c-1.7,2.1-4.1,3.2-7.1,3.2h-9.8V141.8z M414.5,160.9h5.4
			c2.7,0,4.6-0.7,5.7-2.2c1.1-1.5,1.7-3.7,1.7-6.7c0-2.4-0.6-4.3-1.9-5.6s-3.1-1.9-5.6-1.9h-5.3V160.9z M414.5,163.5V182h6.6
			c4.7,0,7.1-3.2,7.1-9.6c0-2.9-0.7-5-2.1-6.6c-1.4-1.5-3.3-2.3-5.8-2.3H414.5z"/>
		<path fill="#FFFFFF" d="M438.6,170v-3h12v3H438.6z"/>
		<path fill="#FFFFFF" d="M472.6,143.9c-3.2,0-5.8,1.7-7.7,5.1c-1.9,3.4-2.9,8.1-2.9,14.2c0,3.9,0.4,7.3,1.3,10.3
			c0.9,2.9,2.1,5.1,3.8,6.7c1.6,1.6,3.5,2.3,5.7,2.3c2.2,0,4.1-0.4,5.7-1.2v2.6c-1.5,0.9-3.5,1.3-6,1.3c-2.7,0-5.1-0.9-7.1-2.6
			s-3.6-4.3-4.7-7.6c-1.1-3.3-1.7-7.3-1.7-11.9c0-6.8,1.2-12.2,3.6-16.1c2.4-3.9,5.7-5.9,9.9-5.9c2.6,0,4.9,0.6,6.9,1.8l-1.3,2.5
			C476.5,144.4,474.7,143.9,472.6,143.9z"/>
		<path fill="#FFFFFF" d="M505.5,184.7l-3.8-15.5h-10.4l-3.7,15.5h-3l10.3-42.8h3l10.5,42.8H505.5z M501,166.2l-3.8-16
			c-0.4-1.8-0.7-3.5-0.9-5.1c-0.2,1.7-0.4,3.4-0.8,5.1l-3.7,16H501z"/>
		<path fill="#FFFFFF" d="M516.7,141.8h2.8v29.9c0,0.7,0,1.3,0,2c0,0.7-0.1,2.7-0.3,6h0.2l16.1-38h3.7v42.8h-2.8v-30.7
			c0-2.5,0.1-5,0.4-7.7h-0.2l-16.2,38.4h-3.7V141.8z M528,138.4c-2.4,0-4.2-0.6-5.4-1.9c-1.3-1.3-2-3.4-2.2-6.3h2.7
			c0.2,2.2,0.7,3.8,1.5,4.7c0.8,0.9,1.9,1.4,3.5,1.4c1.6,0,2.8-0.5,3.6-1.5c0.8-1,1.2-2.5,1.4-4.6h2.7
			C535.3,135.7,532.7,138.4,528,138.4z"/>
		<path fill="#FFFFFF" d="M559.4,184.7h-2.9v-40.1H548v-2.8h19.9v2.8h-8.5V184.7z"/>
		<path fill="#FFFFFF" d="M599.9,163.2c0,7.1-1.1,12.5-3.2,16.3s-5.2,5.7-9.2,5.7c-4,0-7.1-1.9-9.2-5.8c-2.1-3.8-3.1-9.3-3.1-16.4
			c0-7.4,1-12.9,3.1-16.5c2.1-3.6,5.2-5.4,9.3-5.4c4,0,7,1.9,9.1,5.7C598.9,150.7,599.9,156.1,599.9,163.2z M578.2,163.2
			c0,6.4,0.8,11.2,2.4,14.4s3.9,4.9,7,4.9c3.1,0,5.4-1.6,7-4.8s2.4-8,2.4-14.5c0-6.3-0.8-11.1-2.3-14.4c-1.6-3.2-3.9-4.8-6.9-4.8
			c-3.1,0-5.5,1.6-7.1,4.9C579,152.1,578.2,156.9,578.2,163.2z"/>
		<path fill="#FFFFFF" d="M611.5,141.8h8.2c3.4,0,5.9,0.9,7.7,2.6c1.8,1.7,2.7,4.3,2.7,7.6c0,5.8-2.1,9.1-6.4,10v0.2
			c2.4,0.5,4.3,1.6,5.4,3.3s1.8,4,1.8,7c0,3.8-0.8,6.8-2.5,9c-1.7,2.1-4.1,3.2-7.1,3.2h-9.8V141.8z M614.3,160.9h5.4
			c2.7,0,4.6-0.7,5.7-2.2c1.1-1.5,1.7-3.7,1.7-6.7c0-2.4-0.6-4.3-1.9-5.6s-3.1-1.9-5.6-1.9h-5.3V160.9z M614.3,163.5V182h6.6
			c4.7,0,7.1-3.2,7.1-9.6c0-2.9-0.7-5-2.1-6.6c-1.4-1.5-3.3-2.3-5.8-2.3H614.3z"/>
	</g>
</g>
<g id="_x3C__x2F_sublimecode_x3E_">
	<g>
		<path fill="#FFFFFF" d="M0,69.6v-8.9l35.2-32.9v16.9L12.6,65.2l22.6,20.4v16.6L0,69.6z"/>
		<path fill="#FFFFFF" d="M82.8,0L51.5,116.2H42L73.1,0H82.8z"/>
		<path fill="#FFFFFF" d="M115.3,34.5v-8.9c0-4.1-2-6.1-6-6.1h-2.1c-3.9,0-5.8,2-5.8,6.1v16.9c0,1.9,0.4,3.2,1.1,3.8
			c0.8,0.7,2,1.5,3.7,2.6l12.9,7c2.8,1.6,4.9,2.9,6,3.8c1.2,0.9,2.1,2,2.8,3.3c0.7,1.3,1,3.7,1,7.3v21.7c0,11.5-5.5,17.2-16.5,17.2
			h-8.4c-10.9,0-16.3-6.2-16.3-18.7v-5.1h13.6v5.5c0,4,2,6,6.1,6h2.4c3.6,0,5.4-2,5.4-6V73.4c0-1.9-0.4-3.2-1.1-3.8
			c-0.8-0.7-2-1.5-3.7-2.6l-12.9-7.2c-2.8-1.5-4.9-2.8-6.2-3.8c-1.3-1-2.2-2.4-2.8-4c-0.6-1.7-0.9-3.8-0.9-6.5V24.6
			c0-11.6,5.4-17.5,16.3-17.5h8.5c10.9,0,16.3,5.8,16.3,17.5v9.9H115.3z"/>
		<path fill="#FFFFFF" d="M184.6,7.1v82.6c0,12.9-5.5,19.3-16.5,19.3h-11.5c-10.9,0-16.3-6.5-16.3-19.5V7.1h13.6V90
			c0,4.5,2,6.7,6,6.7h5.5c3.7,0,5.5-2.2,5.5-6.7V7.1H184.6z"/>
		<path fill="#FFFFFF" d="M229,56.7c7.5,2.1,11.2,6,11.2,11.6v25.6c0,10.1-5.2,15.2-15.5,15.2h-27.4V7.1h23.3
			c12.1,0,18.2,6.2,18.2,18.5v19.6c0,5.9-3.3,9.5-9.8,10.8V56.7z M211,50.1h6.4c5.2,0,7.8-2.5,7.8-7.4V26.8c0-4.9-2-7.4-6.1-7.4H211
			V50.1z M211,96.7h10.2c3.6,0,5.4-1.5,5.4-4.4V69.7c0-4.8-2.7-7.2-8.1-7.2H211V96.7z"/>
		<path fill="#FFFFFF" d="M284,109.1h-32.4V7.1h13.6v89.6H284V109.1z"/>
		<path fill="#FFFFFF" d="M291.8,109.1V7.1h13.6v102H291.8z"/>
		<path fill="#FFFFFF" d="M345.9,67l12.6-59.9h15.1v102H360l1.4-66.7l-10.2,48.3h-10.5l-10.2-48.3l1.4,66.7h-13.6V7.1h15.1L345.9,67
			z"/>
		<path fill="#FFFFFF" d="M386.4,109.1V7.1h33.8v12.4H400v31h17.9v12.4H400v33.9h20.2v12.4H386.4z"/>
		<path fill="#FFCC41" d="M470.7,85.2v6.5c0,11.6-5.4,17.3-16.3,17.3h-8.8c-10.9,0-16.3-5.8-16.3-17.3V24.4
			c0-11.5,5.4-17.3,16.3-17.3h8.8c10.9,0,16.3,5.8,16.3,17.3v11.5h-13.6V25.4c0-4-2-6-6.1-6h-2.7c-3.6,0-5.4,2-5.4,6v65.3
			c0,4,1.8,6,5.4,6h3.4c3.6,0,5.4-2,5.4-6v-5.5H470.7z"/>
		<path fill="#FFCC41" d="M497.1,109.1c-11,0-16.5-5.8-16.5-17.3V24.6c0-11.6,5.4-17.5,16.3-17.5h13.1c10.9,0,16.3,5.8,16.3,17.5
			v67.2c0,11.6-5.5,17.3-16.5,17.3H497.1z M500.4,96.7h7c3.6,0,5.4-2,5.4-6V25.4c0-4-2-6-6.1-6h-6.4c-4,0-6,2-6,6v65.3
			C494.3,94.7,496.3,96.7,500.4,96.7z"/>
		<path fill="#FFCC41" d="M538.5,109.1V7.1h23.7c12.8,0,19.2,6.5,19.2,19.6v67.6c0,9.8-5.4,14.8-16.3,14.8H538.5z M552.1,96.7h10.2
			c3.6,0,5.4-1.5,5.4-4.5V26.8c0-4.9-2-7.4-6.1-7.4h-9.5V96.7z"/>
		<path fill="#FFCC41" d="M593.4,109.1V7.1h33.8v12.4H607v31h17.9v12.4H607v33.9h20.2v12.4H593.4z"/>
		<path fill="#FFCC41" d="M637.4,85.6L660,65l-22.6-20.4V28l35.2,32.5v9.1l-35.2,32.9V85.6z"/>
	</g>
</g>
<g id="Слой_21_xA0_Image_1_">
</g>
<g id="Слой_21_копия_xA0_Image_1_">
</g>
</svg>
