<svg xmlns="http://www.w3.org/2000/svg" xmlns:xlink="http://www.w3.org/1999/xlink" version="1.1" x="0px" y="0px" viewBox="0 0 90 90" enable-background="new 0 0 90 90" xml:space="preserve">
	<path d="M69.8,42.4c0-0.2,0-0.4,0-0.5c0,0.1,0,0.3,0,0.4c0,0.3,0,0.7,0.1,1C69.8,43,69.8,42.7,69.8,42.4z"></path>
	<path fill="#555" d="M65.6,43c-1.1,0-2.1,0.3-2.9,0.8c-0.9-1.9-2.8-3.2-5-3.2c-1.1,0-2.1,0.3-2.9,0.8c-0.9-1.9-2.8-3.2-5-3.2  c-0.8,0-1.7,0.2-2.4,0.5v-15c0-3.1-2.5-5.5-5.5-5.5s-5.5,2.5-5.5,5.5v25l-1.7-3.5c-0.8-2.1-2.9-3.6-5.2-3.6c-0.6,0-1.3,0.1-1.9,0.3  c-1.4,0.5-2.5,1.5-3.1,2.9c-0.6,1.3-0.7,2.8-0.2,4.2c0,0,0,0.1,0.1,0.1l11.5,24.4c0,0.1,0.1,0.1,0.1,0.2c1.2,1.8,2.6,3.4,4.3,4.8  c0.1,0.1,0.2,0.1,0.3,0.2l0,0c0.1,0.1,0.1,0.1,0.2,0.2c3.3,2.4,7.2,3.7,11.3,3.7c10.2,0,18.6-8,19-18.1c0,0,0-0.1,0-0.2  c0-0.3,0-0.6,0-0.9c0-0.1,0-0.1,0-0.2l0-0.2c0-0.2,0-0.3,0-0.5V48.5C71.2,45.5,68.7,43,65.6,43z M52.1,79.5c-3.4,0-6.6-1-9.3-3  l-0.2-0.2c-0.2-0.2-0.4-0.3-0.6-0.4c-1.3-1.1-2.4-2.3-3.3-3.7L27.3,48c-0.2-0.6-0.2-1.2,0.1-1.8c0.3-0.6,0.7-1,1.3-1.2  c1.2-0.4,2.6,0.2,3,1.4c0,0,0,0.1,0.1,0.1l4.7,10c0.3,0.7,1.1,1,1.8,0.9c0.7-0.2,1.2-0.8,1.2-1.5V23.7c0-1.3,1.1-2.4,2.4-2.4  c1.3,0,2.4,1.1,2.4,2.4v20c0,0.9,0.7,1.6,1.6,1.6s1.6-0.7,1.6-1.6c0-1.3,1.1-2.4,2.4-2.4c1.3,0,2.4,1.1,2.4,2.4v2.4  c0,0.9,0.7,1.6,1.6,1.6c0.9,0,1.6-0.7,1.6-1.6c0-1.3,1.1-2.4,2.4-2.4s2.4,1.1,2.4,2.4v2.4c0,0.9,0.7,1.6,1.6,1.6s1.6-0.7,1.6-1.6  c0-1.3,1.1-2.4,2.4-2.4c1.3,0,2.4,1.1,2.4,2.4l0,14.3l0,0.4c0,0.2,0,0.3,0,0.5c0,0.3,0,0.5,0,0.8C67.5,72.9,60.6,79.5,52.1,79.5z"></path>
	<path fill="#555" d="M32.7,24.4h-7.9l1.8-1.8c0.6-0.6,0.6-1.6,0-2.2c-0.6-0.6-1.6-0.6-2.2,0l-4.5,4.5l0,0c-0.2,0.2-0.3,0.3-0.3,0.5  c-0.2,0.4-0.2,0.8,0,1.2c0.1,0.2,0.2,0.4,0.3,0.5l0,0l4.5,4.5c0.3,0.3,0.7,0.5,1.1,0.5s0.8-0.2,1.1-0.5c0.6-0.6,0.6-1.6,0-2.2  l-1.8-1.8h7.9c0.9,0,1.6-0.7,1.6-1.6C34.3,25.1,33.6,24.4,32.7,24.4z"></path>
	<path d="M64.3,25.4c-0.1-0.2-0.2-0.4-0.3-0.5l0,0C64.1,25,64.2,25.2,64.3,25.4z"></path>
	<path d="M63.9,27.1c0.1-0.1,0.3-0.3,0.3-0.5C64.2,26.8,64.1,26.9,63.9,27.1L63.9,27.1z"></path>
	<path fill="#555" d="M64.3,25.4c-0.1-0.2-0.2-0.4-0.3-0.5l0,0l-4.5-4.5c-0.6-0.6-1.6-0.6-2.2,0c-0.6,0.6-0.6,1.6,0,2.2l1.8,1.8h-7.9  c-0.9,0-1.6,0.7-1.6,1.6c0,0.9,0.7,1.6,1.6,1.6H59l-1.8,1.8c-0.6,0.6-0.6,1.6,0,2.2c0.3,0.3,0.7,0.5,1.1,0.5s0.8-0.2,1.1-0.5  l4.5-4.5l0,0c0.2-0.2,0.3-0.3,0.3-0.5C64.4,26.2,64.4,25.8,64.3,25.4z"></path>
</svg>
